<?xml version="1.0" encoding="UTF-8" standalone="no"?>
<!DOCTYPE svg PUBLIC "-//W3C//DTD SVG 1.1//EN"
 "http://www.w3.org/Graphics/SVG/1.1/DTD/svg11.dtd">
<!-- Generated by graphviz version 14.1.0 (20251206.1807)
 -->
<!-- Title: File Upload Flow Pages: 1 -->
<svg width="4645pt" height="1507pt"
 viewBox="0.00 0.00 4645.00 1507.00" xmlns="http://www.w3.org/2000/svg" xmlns:xlink="http://www.w3.org/1999/xlink">
<g id="graph0" class="graph" transform="scale(2.77778 2.77778) rotate(0) translate(144 398.45)">
<title>File Upload Flow</title>
<polygon fill="white" stroke="none" points="-144,144 -144,-398.45 1528.2,-398.45 1528.2,144 -144,144"/>
<text xml:space="preserve" text-anchor="middle" x="692.1" y="-8.25" font-family="Arial Bold" font-size="20.00" fill="#2d3436">File Upload Flow</text>
<!-- 2df8632f9884466cb6038492e186b7e9 -->
<g id="node1" class="node">
<title>2df8632f9884466cb6038492e186b7e9</title>
<path fill="#e3f2fd" stroke="none" stroke-width="2.5" d="M74.4,-225.65C74.4,-225.65 12,-225.65 12,-225.65 6,-225.65 0,-219.65 0,-213.65 0,-213.65 0,-72.05 0,-72.05 0,-66.05 6,-60.05 12,-60.05 12,-60.05 74.4,-60.05 74.4,-60.05 80.4,-60.05 86.4,-66.05 86.4,-72.05 86.4,-72.05 86.4,-213.65 86.4,-213.65 86.4,-219.65 80.4,-225.65 74.4,-225.65"/>
<image xlink:href="C:\Users\ahmad\AppData\Local\Programs\Python\Python313\Lib\site-packages\resources/aws/general\user.png" width="86.4px" height="86.4px" preserveAspectRatio="xMinYMin meet" x="5.68434e-14" y="-186.05"/>
<text xml:space="preserve" text-anchor="middle" x="43.2" y="-84.95" font-family="Arial Bold" font-size="18.00" fill="#0f2f6b">User</text>
<text xml:space="preserve" text-anchor="middle" x="43.2" y="-63.95" font-family="Arial Bold" font-size="18.00" fill="#0f2f6b">Upload SRS</text>
</g>
<!-- c504a1ad1cd4414782cbba0072cbf471 -->
<g id="node2" class="node">
<title>c504a1ad1cd4414782cbba0072cbf471</title>
<path fill="#e3f2fd" stroke="none" stroke-width="2.5" d="M259.8,-240.05C259.8,-240.05 197.4,-240.05 197.4,-240.05 191.4,-240.05 185.4,-234.05 185.4,-228.05 185.4,-228.05 185.4,-57.65 185.4,-57.65 185.4,-51.65 191.4,-45.65 197.4,-45.65 197.4,-45.65 259.8,-45.65 259.8,-45.65 265.8,-45.65 271.8,-51.65 271.8,-57.65 271.8,-57.65 271.8,-228.05 271.8,-228.05 271.8,-234.05 265.8,-240.05 259.8,-240.05"/>
<image xlink:href="C:\Users\ahmad\AppData\Local\Programs\Python\Python313\Lib\site-packages\resources/digitalocean/storage\folder.png" width="86.4px" height="86.4px" preserveAspectRatio="xMinYMin meet" x="185.4" y="-186.05"/>
<text xml:space="preserve" text-anchor="middle" x="228.6" y="-91.55" font-family="Arial Bold" font-size="18.00" fill="#0f2f6b">SRS Document</text>
<text xml:space="preserve" text-anchor="middle" x="228.6" y="-70.55" font-family="Arial Bold" font-size="18.00" fill="#0f2f6b">(PDF/TXT)</text>
<text xml:space="preserve" text-anchor="middle" x="228.6" y="-49.55" font-family="Arial Bold" font-size="18.00" fill="#0f2f6b">File Upload</text>
</g>
<!-- 2df8632f9884466cb6038492e186b7e9&#45;&gt;c504a1ad1cd4414782cbba0072cbf471 -->
<g id="edge1" class="edge">
<title>2df8632f9884466cb6038492e186b7e9&#45;&gt;c504a1ad1cd4414782cbba0072cbf471</title>
<path fill="none" stroke="#1976d2" stroke-width="2.3" d="M86.2,-142.85C86.2,-142.85 173.03,-142.85 173.03,-142.85"/>
<polygon fill="#1976d2" stroke="#1976d2" stroke-width="2.3" points="173.03,-146 182.03,-142.85 173.03,-139.7 173.03,-146"/>
<text xml:space="preserve" text-anchor="middle" x="135.9" y="-147" font-family="Sans-Serif" font-size="13.00" fill="#2d3436">1. Upload</text>
</g>
<!-- e9666e02c40a48508836cc179b99e5a3 -->
<g id="node3" class="node">
<title>e9666e02c40a48508836cc179b99e5a3</title>
<path fill="#e3f2fd" stroke="none" stroke-width="2.5" d="M445.2,-254.45C445.2,-254.45 382.8,-254.45 382.8,-254.45 376.8,-254.45 370.8,-248.45 370.8,-242.45 370.8,-242.45 370.8,-43.25 370.8,-43.25 370.8,-37.25 376.8,-31.25 382.8,-31.25 382.8,-31.25 445.2,-31.25 445.2,-31.25 451.2,-31.25 457.2,-37.25 457.2,-43.25 457.2,-43.25 457.2,-242.45 457.2,-242.45 457.2,-248.45 451.2,-254.45 445.2,-254.45"/>
<image xlink:href="C:\Users\ahmad\AppData\Local\Programs\Python\Python313\Lib\site-packages\resources/aws/ml\textract.png" width="86.4px" height="86.4px" preserveAspectRatio="xMinYMin meet" x="370.8" y="-186.05"/>
<text xml:space="preserve" text-anchor="middle" x="414" y="-98.15" font-family="Arial Bold" font-size="18.00" fill="#0f2f6b">Document AI</text>
<text xml:space="preserve" text-anchor="middle" x="414" y="-77.15" font-family="Arial Bold" font-size="18.00" fill="#0f2f6b">Extract Text</text>
<text xml:space="preserve" text-anchor="middle" x="414" y="-56.15" font-family="Arial Bold" font-size="18.00" fill="#0f2f6b">Tables &amp; Forms</text>
<text xml:space="preserve" text-anchor="middle" x="414" y="-35.15" font-family="Arial Bold" font-size="18.00" fill="#0f2f6b">OCR Support</text>
</g>
<!-- c504a1ad1cd4414782cbba0072cbf471&#45;&gt;e9666e02c40a48508836cc179b99e5a3 -->
<g id="edge2" class="edge">
<title>c504a1ad1cd4414782cbba0072cbf471&#45;&gt;e9666e02c40a48508836cc179b99e5a3</title>
<path fill="none" stroke="#1976d2" stroke-width="2.3" d="M271.6,-142.85C271.6,-142.85 358.43,-142.85 358.43,-142.85"/>
<polygon fill="#1976d2" stroke="#1976d2" stroke-width="2.3" points="358.43,-146 367.43,-142.85 358.43,-139.7 358.43,-146"/>
<text xml:space="preserve" text-anchor="middle" x="321.3" y="-147" font-family="Sans-Serif" font-size="13.00" fill="#2d3436">2. File</text>
</g>
<!-- a3abdbe295044e37bacfcdbf9587441d -->
<g id="node4" class="node">
<title>a3abdbe295044e37bacfcdbf9587441d</title>
<path fill="#e3f2fd" stroke="none" stroke-width="2.5" d="M630.6,-254.45C630.6,-254.45 568.2,-254.45 568.2,-254.45 562.2,-254.45 556.2,-248.45 556.2,-242.45 556.2,-242.45 556.2,-43.25 556.2,-43.25 556.2,-37.25 562.2,-31.25 568.2,-31.25 568.2,-31.25 630.6,-31.25 630.6,-31.25 636.6,-31.25 642.6,-37.25 642.6,-43.25 642.6,-43.25 642.6,-242.45 642.6,-242.45 642.6,-248.45 636.6,-254.45 630.6,-254.45"/>
<image xlink:href="C:\Users\ahmad\AppData\Local\Programs\Python\Python313\Lib\site-packages\resources/aws/management\systems-manager-documents.png" width="86.4px" height="86.4px" preserveAspectRatio="xMinYMin meet" x="556.2" y="-186.05"/>
<text xml:space="preserve" text-anchor="middle" x="599.4" y="-98.15" font-family="Arial Bold" font-size="18.00" fill="#0f2f6b">Text Splitter</text>
<text xml:space="preserve" text-anchor="middle" x="599.4" y="-77.15" font-family="Arial Bold" font-size="18.00" fill="#0f2f6b">RecursiveCharacter</text>
<text xml:space="preserve" text-anchor="middle" x="599.4" y="-56.15" font-family="Arial Bold" font-size="18.00" fill="#0f2f6b">2000 chars</text>
<text xml:space="preserve" text-anchor="middle" x="599.4" y="-35.15" font-family="Arial Bold" font-size="18.00" fill="#0f2f6b">300 overlap</text>
</g>
<!-- e9666e02c40a48508836cc179b99e5a3&#45;&gt;a3abdbe295044e37bacfcdbf9587441d -->
<g id="edge3" class="edge">
<title>e9666e02c40a48508836cc179b99e5a3&#45;&gt;a3abdbe295044e37bacfcdbf9587441d</title>
<path fill="none" stroke="#1976d2" stroke-width="2.3" d="M457,-142.85C457,-142.85 543.83,-142.85 543.83,-142.85"/>
<polygon fill="#1976d2" stroke="#1976d2" stroke-width="2.3" points="543.83,-146 552.83,-142.85 543.83,-139.7 543.83,-146"/>
<text xml:space="preserve" text-anchor="middle" x="506.7" y="-147" font-family="Sans-Serif" font-size="13.00" fill="#2d3436">3. Extracted Text</text>
</g>
<!-- 3c0d132b07d740568f58a90f77a489c6 -->
<g id="node5" class="node">
<title>3c0d132b07d740568f58a90f77a489c6</title>
<path fill="#e3f2fd" stroke="none" stroke-width="2.5" d="M816,-240.05C816,-240.05 753.6,-240.05 753.6,-240.05 747.6,-240.05 741.6,-234.05 741.6,-228.05 741.6,-228.05 741.6,-57.65 741.6,-57.65 741.6,-51.65 747.6,-45.65 753.6,-45.65 753.6,-45.65 816,-45.65 816,-45.65 822,-45.65 828,-51.65 828,-57.65 828,-57.65 828,-228.05 828,-228.05 828,-234.05 822,-240.05 816,-240.05"/>
<image xlink:href="C:\Users\ahmad\AppData\Local\Programs\Python\Python313\Lib\site-packages\resources/aws/network\elb-network-load-balancer.png" width="86.4px" height="86.4px" preserveAspectRatio="xMinYMin meet" x="741.6" y="-186.05"/>
<text xml:space="preserve" text-anchor="middle" x="784.8" y="-91.55" font-family="Arial Bold" font-size="18.00" fill="#0f2f6b">Text Chunks</text>
<text xml:space="preserve" text-anchor="middle" x="784.8" y="-70.55" font-family="Arial Bold" font-size="18.00" fill="#0f2f6b">Segments</text>
<text xml:space="preserve" text-anchor="middle" x="784.8" y="-49.55" font-family="Arial Bold" font-size="18.00" fill="#0f2f6b">Ready for Embedding</text>
</g>
<!-- a3abdbe295044e37bacfcdbf9587441d&#45;&gt;3c0d132b07d740568f58a90f77a489c6 -->
<g id="edge4" class="edge">
<title>a3abdbe295044e37bacfcdbf9587441d&#45;&gt;3c0d132b07d740568f58a90f77a489c6</title>
<path fill="none" stroke="#1976d2" stroke-width="2.3" d="M642.4,-142.85C642.4,-142.85 729.23,-142.85 729.23,-142.85"/>
<polygon fill="#1976d2" stroke="#1976d2" stroke-width="2.3" points="729.23,-146 738.23,-142.85 729.23,-139.7 729.23,-146"/>
<text xml:space="preserve" text-anchor="middle" x="692.1" y="-147" font-family="Sans-Serif" font-size="13.00" fill="#2d3436">4. Split</text>
</g>
<!-- a225a87f2d9d4a309e874439e69d9f02 -->
<g id="node6" class="node">
<title>a225a87f2d9d4a309e874439e69d9f02</title>
<path fill="#e3f2fd" stroke="none" stroke-width="2.5" d="M1001.4,-254.45C1001.4,-254.45 939,-254.45 939,-254.45 933,-254.45 927,-248.45 927,-242.45 927,-242.45 927,-43.25 927,-43.25 927,-37.25 933,-31.25 939,-31.25 939,-31.25 1001.4,-31.25 1001.4,-31.25 1007.4,-31.25 1013.4,-37.25 1013.4,-43.25 1013.4,-43.25 1013.4,-242.45 1013.4,-242.45 1013.4,-248.45 1007.4,-254.45 1001.4,-254.45"/>
<image xlink:href="C:\Users\ahmad\AppData\Local\Programs\Python\Python313\Lib\site-packages\resources/aws/ml\machine-learning.png" width="86.4px" height="86.4px" preserveAspectRatio="xMinYMin meet" x="927" y="-186.05"/>
<text xml:space="preserve" text-anchor="middle" x="970.2" y="-98.15" font-family="Arial Bold" font-size="18.00" fill="#0f2f6b">Embedding Model</text>
<text xml:space="preserve" text-anchor="middle" x="970.2" y="-77.15" font-family="Arial Bold" font-size="18.00" fill="#0f2f6b">text&#45;embedding&#45;3&#45;small</text>
<text xml:space="preserve" text-anchor="middle" x="970.2" y="-56.15" font-family="Arial Bold" font-size="18.00" fill="#0f2f6b">1536 dimensions</text>
<text xml:space="preserve" text-anchor="middle" x="970.2" y="-35.15" font-family="Arial Bold" font-size="18.00" fill="#0f2f6b">Batch Processing</text>
</g>
<!-- 3c0d132b07d740568f58a90f77a489c6&#45;&gt;a225a87f2d9d4a309e874439e69d9f02 -->
<g id="edge5" class="edge">
<title>3c0d132b07d740568f58a90f77a489c6&#45;&gt;a225a87f2d9d4a309e874439e69d9f02</title>
<path fill="none" stroke="#1976d2" stroke-width="2.3" d="M827.8,-142.85C827.8,-142.85 914.63,-142.85 914.63,-142.85"/>
<polygon fill="#1976d2" stroke="#1976d2" stroke-width="2.3" points="914.63,-146 923.63,-142.85 914.63,-139.7 914.63,-146"/>
<text xml:space="preserve" text-anchor="middle" x="877.5" y="-147" font-family="Sans-Serif" font-size="13.00" fill="#2d3436">5. Encode</text>
</g>
<!-- db49d47b157640a3877b00dfd27fedda -->
<g id="node7" class="node">
<title>db49d47b157640a3877b00dfd27fedda</title>
<path fill="#e3f2fd" stroke="none" stroke-width="2.5" d="M1186.8,-240.05C1186.8,-240.05 1124.4,-240.05 1124.4,-240.05 1118.4,-240.05 1112.4,-234.05 1112.4,-228.05 1112.4,-228.05 1112.4,-57.65 1112.4,-57.65 1112.4,-51.65 1118.4,-45.65 1124.4,-45.65 1124.4,-45.65 1186.8,-45.65 1186.8,-45.65 1192.8,-45.65 1198.8,-51.65 1198.8,-57.65 1198.8,-57.65 1198.8,-228.05 1198.8,-228.05 1198.8,-234.05 1192.8,-240.05 1186.8,-240.05"/>
<image xlink:href="C:\Users\ahmad\AppData\Local\Programs\Python\Python313\Lib\site-packages\resources/aws/database\database.png" width="86.4px" height="86.4px" preserveAspectRatio="xMinYMin meet" x="1112.4" y="-186.05"/>
<text xml:space="preserve" text-anchor="middle" x="1155.6" y="-91.55" font-family="Arial Bold" font-size="18.00" fill="#0f2f6b">Vector Store</text>
<text xml:space="preserve" text-anchor="middle" x="1155.6" y="-70.55" font-family="Arial Bold" font-size="18.00" fill="#0f2f6b">Supabase pgvector</text>
<text xml:space="preserve" text-anchor="middle" x="1155.6" y="-49.55" font-family="Arial Bold" font-size="18.00" fill="#0f2f6b">Store Embeddings</text>
</g>
<!-- a225a87f2d9d4a309e874439e69d9f02&#45;&gt;db49d47b157640a3877b00dfd27fedda -->
<g id="edge6" class="edge">
<title>a225a87f2d9d4a309e874439e69d9f02&#45;&gt;db49d47b157640a3877b00dfd27fedda</title>
<path fill="none" stroke="#1976d2" stroke-width="2.3" d="M1013.2,-142.85C1013.2,-142.85 1100.03,-142.85 1100.03,-142.85"/>
<polygon fill="#1976d2" stroke="#1976d2" stroke-width="2.3" points="1100.03,-146 1109.03,-142.85 1100.03,-139.7 1100.03,-146"/>
<text xml:space="preserve" text-anchor="middle" x="1062.9" y="-147" font-family="Sans-Serif" font-size="13.00" fill="#2d3436">6. Store</text>
</g>
<!-- c317f2521070450ab1d15ad113d01ad3 -->
<g id="node8" class="node">
<title>c317f2521070450ab1d15ad113d01ad3</title>
<path fill="#e3f2fd" stroke="none" stroke-width="2.5" d="M1372.2,-254.45C1372.2,-254.45 1309.8,-254.45 1309.8,-254.45 1303.8,-254.45 1297.8,-248.45 1297.8,-242.45 1297.8,-242.45 1297.8,-43.25 1297.8,-43.25 1297.8,-37.25 1303.8,-31.25 1309.8,-31.25 1309.8,-31.25 1372.2,-31.25 1372.2,-31.25 1378.2,-31.25 1384.2,-37.25 1384.2,-43.25 1384.2,-43.25 1384.2,-242.45 1384.2,-242.45 1384.2,-248.45 1378.2,-254.45 1372.2,-254.45"/>
<image xlink:href="C:\Users\ahmad\AppData\Local\Programs\Python\Python313\Lib\site-packages\resources/aws/database\rds.png" width="86.4px" height="86.4px" preserveAspectRatio="xMinYMin meet" x="1297.8" y="-186.05"/>
<text xml:space="preserve" text-anchor="middle" x="1341" y="-98.15" font-family="Arial Bold" font-size="18.00" fill="#0f2f6b">MongoDB</text>
<text xml:space="preserve" text-anchor="middle" x="1341" y="-77.15" font-family="Arial Bold" font-size="18.00" fill="#0f2f6b">Update Project</text>
<text xml:space="preserve" text-anchor="middle" x="1341" y="-56.15" font-family="Arial Bold" font-size="18.00" fill="#0f2f6b">processed: true</text>
<text xml:space="preserve" text-anchor="middle" x="1341" y="-35.15" font-family="Arial Bold" font-size="18.00" fill="#0f2f6b">chunksCount</text>
</g>
<!-- db49d47b157640a3877b00dfd27fedda&#45;&gt;c317f2521070450ab1d15ad113d01ad3 -->
<g id="edge7" class="edge">
<title>db49d47b157640a3877b00dfd27fedda&#45;&gt;c317f2521070450ab1d15ad113d01ad3</title>
<path fill="none" stroke="#1976d2" stroke-width="2.3" d="M1198.6,-142.85C1198.6,-142.85 1285.43,-142.85 1285.43,-142.85"/>
<polygon fill="#1976d2" stroke="#1976d2" stroke-width="2.3" points="1285.43,-146 1294.43,-142.85 1285.43,-139.7 1285.43,-146"/>
<text xml:space="preserve" text-anchor="middle" x="1248.3" y="-147" font-family="Sans-Serif" font-size="13.00" fill="#2d3436">7. Update</text>
</g>
</g>
</svg>
