<?xml version="1.0" encoding="UTF-8" standalone="no"?>
<!DOCTYPE svg PUBLIC "-//W3C//DTD SVG 1.1//EN"
 "http://www.w3.org/Graphics/SVG/1.1/DTD/svg11.dtd">
<!-- Generated by graphviz version 14.1.0 (20251206.1807)
 -->
<!-- Title: Feature Extraction Flow Pages: 1 -->
<svg width="4130pt" height="3313pt"
 viewBox="0.00 0.00 4130.00 3313.00" xmlns="http://www.w3.org/2000/svg" xmlns:xlink="http://www.w3.org/1999/xlink">
<g id="graph0" class="graph" transform="scale(2.77778 2.77778) rotate(0) translate(144 1048.65)">
<title>Feature Extraction Flow</title>
<polygon fill="white" stroke="none" points="-144,144 -144,-1048.65 1342.8,-1048.65 1342.8,144 -144,144"/>
<text xml:space="preserve" text-anchor="middle" x="599.4" y="-8.25" font-family="Arial Bold" font-size="20.00" fill="#2d3436">Feature Extraction Flow</text>
<!-- 506d0d6e99fc4d888077e0df69761ff3 -->
<g id="node1" class="node">
<title>506d0d6e99fc4d888077e0df69761ff3</title>
<path fill="#e3f2fd" stroke="none" stroke-width="2.5" d="M74.4,-387.65C74.4,-387.65 12,-387.65 12,-387.65 6,-387.65 0,-381.65 0,-375.65 0,-375.65 0,-205.25 0,-205.25 0,-199.25 6,-193.25 12,-193.25 12,-193.25 74.4,-193.25 74.4,-193.25 80.4,-193.25 86.4,-199.25 86.4,-205.25 86.4,-205.25 86.4,-375.65 86.4,-375.65 86.4,-381.65 80.4,-387.65 74.4,-387.65"/>
<image xlink:href="C:\Users\ahmad\AppData\Local\Programs\Python\Python313\Lib\site-packages\resources/aws/general\user.png" width="86.4px" height="86.4px" preserveAspectRatio="xMinYMin meet" x="5.68434e-14" y="-333.65"/>
<text xml:space="preserve" text-anchor="middle" x="43.2" y="-235.6" font-family="Arial Bold" font-size="17.00" fill="#0f2f6b">User</text>
<text xml:space="preserve" text-anchor="middle" x="43.2" y="-216.1" font-family="Arial Bold" font-size="17.00" fill="#0f2f6b">Extract Features</text>
<text xml:space="preserve" text-anchor="middle" x="43.2" y="-196.6" font-family="Arial Bold" font-size="17.00" fill="#0f2f6b">from SRS</text>
</g>
<!-- f95e0a196ce24179832306d1bc60d0d9 -->
<g id="node3" class="node">
<title>f95e0a196ce24179832306d1bc60d0d9</title>
<path fill="#e3f2fd" stroke="none" stroke-width="2.5" d="M259.8,-580.65C259.8,-580.65 197.4,-580.65 197.4,-580.65 191.4,-580.65 185.4,-574.65 185.4,-568.65 185.4,-568.65 185.4,-398.25 185.4,-398.25 185.4,-392.25 191.4,-386.25 197.4,-386.25 197.4,-386.25 259.8,-386.25 259.8,-386.25 265.8,-386.25 271.8,-392.25 271.8,-398.25 271.8,-398.25 271.8,-568.65 271.8,-568.65 271.8,-574.65 265.8,-580.65 259.8,-580.65"/>
<image xlink:href="C:\Users\ahmad\AppData\Local\Programs\Python\Python313\Lib\site-packages\resources/aws/ml\machine-learning.png" width="86.4px" height="86.4px" preserveAspectRatio="xMinYMin meet" x="185.4" y="-526.65"/>
<text xml:space="preserve" text-anchor="middle" x="228.6" y="-428.6" font-family="Arial Bold" font-size="17.00" fill="#0f2f6b">Embedding Model</text>
<text xml:space="preserve" text-anchor="middle" x="228.6" y="-409.1" font-family="Arial Bold" font-size="17.00" fill="#0f2f6b">text&#45;embedding&#45;3&#45;small</text>
<text xml:space="preserve" text-anchor="middle" x="228.6" y="-389.6" font-family="Arial Bold" font-size="17.00" fill="#0f2f6b">Query Embedding</text>
</g>
<!-- 506d0d6e99fc4d888077e0df69761ff3&#45;&gt;f95e0a196ce24179832306d1bc60d0d9 -->
<g id="edge1" class="edge">
<title>506d0d6e99fc4d888077e0df69761ff3&#45;&gt;f95e0a196ce24179832306d1bc60d0d9</title>
<path fill="none" stroke="#1976d2" stroke-width="2.3" d="M42.8,-387.58C42.8,-435.91 42.8,-484.15 42.8,-484.15 42.8,-484.15 171.53,-484.15 171.53,-484.15"/>
<polygon fill="#1976d2" stroke="#1976d2" stroke-width="2.3" points="171.53,-487.83 182.03,-484.15 171.53,-480.48 171.53,-487.83"/>
<text xml:space="preserve" text-anchor="middle" x="135.9" y="-441.6" font-family="Sans-Serif" font-size="13.00" fill="#2d3436">1. Request</text>
</g>
<!-- 44aa89d15f284de9820006b1b91f4e85 -->
<g id="node7" class="node">
<title>44aa89d15f284de9820006b1b91f4e85</title>
<path fill="#e3f2fd" stroke="none" stroke-width="2.5" d="M1001.4,-402.05C1001.4,-402.05 939,-402.05 939,-402.05 933,-402.05 927,-396.05 927,-390.05 927,-390.05 927,-190.85 927,-190.85 927,-184.85 933,-178.85 939,-178.85 939,-178.85 1001.4,-178.85 1001.4,-178.85 1007.4,-178.85 1013.4,-184.85 1013.4,-190.85 1013.4,-190.85 1013.4,-390.05 1013.4,-390.05 1013.4,-396.05 1007.4,-402.05 1001.4,-402.05"/>
<image xlink:href="C:\Users\ahmad\AppData\Local\Programs\Python\Python313\Lib\site-packages\resources/aws/ml\sagemaker.png" width="86.4px" height="86.4px" preserveAspectRatio="xMinYMin meet" x="927" y="-333.65"/>
<text xml:space="preserve" text-anchor="middle" x="970.2" y="-240.7" font-family="Arial Bold" font-size="17.00" fill="#0f2f6b">LLM</text>
<text xml:space="preserve" text-anchor="middle" x="970.2" y="-221.2" font-family="Arial Bold" font-size="17.00" fill="#0f2f6b">GPT&#45;4o&#45;mini</text>
<text xml:space="preserve" text-anchor="middle" x="970.2" y="-201.7" font-family="Arial Bold" font-size="17.00" fill="#0f2f6b">Extract Features</text>
<text xml:space="preserve" text-anchor="middle" x="970.2" y="-182.2" font-family="Arial Bold" font-size="17.00" fill="#0f2f6b">JSON Response</text>
</g>
<!-- 506d0d6e99fc4d888077e0df69761ff3&#45;&gt;44aa89d15f284de9820006b1b91f4e85 -->
<g id="edge7" class="edge">
<title>506d0d6e99fc4d888077e0df69761ff3&#45;&gt;44aa89d15f284de9820006b1b91f4e85</title>
<path fill="none" stroke="#1976d2" stroke-width="2.3" stroke-dasharray="5,2" d="M86.36,-289.75C86.36,-289.75 913.07,-289.75 913.07,-289.75"/>
<polygon fill="#1976d2" stroke="#1976d2" stroke-width="2.3" points="913.07,-293.43 923.57,-289.75 913.07,-286.08 913.07,-293.43"/>
<text xml:space="preserve" text-anchor="middle" x="506.7" y="-194.6" font-family="Sans-Serif" font-size="13.00" fill="#2d3436">7. Original Query</text>
</g>
<!-- 56a806a963244a0aaaeb89acd2430529 -->
<g id="node2" class="node">
<title>56a806a963244a0aaaeb89acd2430529</title>
<path fill="#e3f2fd" stroke="none" stroke-width="2.5" d="M259.8,-904.65C259.8,-904.65 197.4,-904.65 197.4,-904.65 191.4,-904.65 185.4,-898.65 185.4,-892.65 185.4,-892.65 185.4,-722.25 185.4,-722.25 185.4,-716.25 191.4,-710.25 197.4,-710.25 197.4,-710.25 259.8,-710.25 259.8,-710.25 265.8,-710.25 271.8,-716.25 271.8,-722.25 271.8,-722.25 271.8,-892.65 271.8,-892.65 271.8,-898.65 265.8,-904.65 259.8,-904.65"/>
<image xlink:href="C:\Users\ahmad\AppData\Local\Programs\Python\Python313\Lib\site-packages\resources/aws/database\database.png" width="86.4px" height="86.4px" preserveAspectRatio="xMinYMin meet" x="185.4" y="-850.65"/>
<text xml:space="preserve" text-anchor="middle" x="228.6" y="-752.6" font-family="Arial Bold" font-size="17.00" fill="#0f2f6b">Vector Store</text>
<text xml:space="preserve" text-anchor="middle" x="228.6" y="-733.1" font-family="Arial Bold" font-size="17.00" fill="#0f2f6b">Supabase pgvector</text>
<text xml:space="preserve" text-anchor="middle" x="228.6" y="-713.6" font-family="Arial Bold" font-size="17.00" fill="#0f2f6b">SRS Chunks</text>
</g>
<!-- 0aaa521d337f429eac1b01f796bb0090 -->
<g id="node4" class="node">
<title>0aaa521d337f429eac1b01f796bb0090</title>
<path fill="#e3f2fd" stroke="none" stroke-width="2.5" d="M445.2,-610.05C445.2,-610.05 382.8,-610.05 382.8,-610.05 376.8,-610.05 370.8,-604.05 370.8,-598.05 370.8,-598.05 370.8,-398.85 370.8,-398.85 370.8,-392.85 376.8,-386.85 382.8,-386.85 382.8,-386.85 445.2,-386.85 445.2,-386.85 451.2,-386.85 457.2,-392.85 457.2,-398.85 457.2,-398.85 457.2,-598.05 457.2,-598.05 457.2,-604.05 451.2,-610.05 445.2,-610.05"/>
<image xlink:href="C:\Users\ahmad\AppData\Local\Programs\Python\Python313\Lib\site-packages\resources/aws/migration\application-discovery-service.png" width="86.4px" height="86.4px" preserveAspectRatio="xMinYMin meet" x="370.8" y="-541.65"/>
<text xml:space="preserve" text-anchor="middle" x="414" y="-448.7" font-family="Arial Bold" font-size="17.00" fill="#0f2f6b">Similarity Search</text>
<text xml:space="preserve" text-anchor="middle" x="414" y="-429.2" font-family="Arial Bold" font-size="17.00" fill="#0f2f6b">Retrieve Top&#45;K</text>
<text xml:space="preserve" text-anchor="middle" x="414" y="-409.7" font-family="Arial Bold" font-size="17.00" fill="#0f2f6b">Relevant Chunks</text>
<text xml:space="preserve" text-anchor="middle" x="414" y="-390.2" font-family="Arial Bold" font-size="17.00" fill="#0f2f6b">Cosine Distance</text>
</g>
<!-- 56a806a963244a0aaaeb89acd2430529&#45;&gt;0aaa521d337f429eac1b01f796bb0090 -->
<g id="edge2" class="edge">
<title>56a806a963244a0aaaeb89acd2430529&#45;&gt;0aaa521d337f429eac1b01f796bb0090</title>
<path fill="none" stroke="#1976d2" stroke-width="2.3" stroke-dasharray="5,2" d="M228.8,-710.4C228.8,-654.55 228.8,-595.35 228.8,-595.35 228.8,-595.35 357.06,-595.35 357.06,-595.35"/>
<polygon fill="#1976d2" stroke="#1976d2" stroke-width="2.3" points="357.06,-599.03 367.56,-595.35 357.06,-591.68 357.06,-599.03"/>
<text xml:space="preserve" text-anchor="middle" x="321.3" y="-811.6" font-family="Sans-Serif" font-size="13.00" fill="#2d3436">2. Chunks</text>
</g>
<!-- f95e0a196ce24179832306d1bc60d0d9&#45;&gt;0aaa521d337f429eac1b01f796bb0090 -->
<g id="edge3" class="edge">
<title>f95e0a196ce24179832306d1bc60d0d9&#45;&gt;0aaa521d337f429eac1b01f796bb0090</title>
<path fill="none" stroke="#1976d2" stroke-width="2.3" d="M271.6,-483.75C271.6,-483.75 356.93,-483.75 356.93,-483.75"/>
<polygon fill="#1976d2" stroke="#1976d2" stroke-width="2.3" points="356.93,-487.43 367.43,-483.75 356.93,-480.08 356.93,-487.43"/>
<text xml:space="preserve" text-anchor="middle" x="321.3" y="-494.6" font-family="Sans-Serif" font-size="13.00" fill="#2d3436">3. Query Embedding</text>
</g>
<!-- 48f0a6fe7234423889e768677ee9cabe -->
<g id="node5" class="node">
<title>48f0a6fe7234423889e768677ee9cabe</title>
<path fill="#e3f2fd" stroke="none" stroke-width="2.5" d="M630.6,-578.25C630.6,-578.25 568.2,-578.25 568.2,-578.25 562.2,-578.25 556.2,-572.25 556.2,-566.25 556.2,-566.25 556.2,-424.65 556.2,-424.65 556.2,-418.65 562.2,-412.65 568.2,-412.65 568.2,-412.65 630.6,-412.65 630.6,-412.65 636.6,-412.65 642.6,-418.65 642.6,-424.65 642.6,-424.65 642.6,-566.25 642.6,-566.25 642.6,-572.25 636.6,-578.25 630.6,-578.25"/>
<image xlink:href="C:\Users\ahmad\AppData\Local\Programs\Python\Python313\Lib\site-packages\resources/aws/migration\application-discovery-service.png" width="86.4px" height="86.4px" preserveAspectRatio="xMinYMin meet" x="556.2" y="-538.65"/>
<text xml:space="preserve" text-anchor="middle" x="599.4" y="-435.5" font-family="Arial Bold" font-size="17.00" fill="#0f2f6b">Re&#45;rank / Filter</text>
<text xml:space="preserve" text-anchor="middle" x="599.4" y="-416" font-family="Arial Bold" font-size="17.00" fill="#0f2f6b">Top Ranked Chunks</text>
</g>
<!-- 0aaa521d337f429eac1b01f796bb0090&#45;&gt;48f0a6fe7234423889e768677ee9cabe -->
<g id="edge4" class="edge">
<title>0aaa521d337f429eac1b01f796bb0090&#45;&gt;48f0a6fe7234423889e768677ee9cabe</title>
<path fill="none" stroke="#1976d2" stroke-width="2.3" d="M457,-495.45C457,-495.45 542.33,-495.45 542.33,-495.45"/>
<polygon fill="#1976d2" stroke="#1976d2" stroke-width="2.3" points="542.33,-499.13 552.83,-495.45 542.33,-491.78 542.33,-499.13"/>
<text xml:space="preserve" text-anchor="middle" x="506.7" y="-501.6" font-family="Sans-Serif" font-size="13.00" fill="#2d3436">4. Relevant Chunks</text>
</g>
<!-- fbc3ddf100a0401bb792081b85fdec7d -->
<g id="node6" class="node">
<title>fbc3ddf100a0401bb792081b85fdec7d</title>
<path fill="#e3f2fd" stroke="none" stroke-width="2.5" d="M816,-587.65C816,-587.65 753.6,-587.65 753.6,-587.65 747.6,-587.65 741.6,-581.65 741.6,-575.65 741.6,-575.65 741.6,-405.25 741.6,-405.25 741.6,-399.25 747.6,-393.25 753.6,-393.25 753.6,-393.25 816,-393.25 816,-393.25 822,-393.25 828,-399.25 828,-405.25 828,-405.25 828,-575.65 828,-575.65 828,-581.65 822,-587.65 816,-587.65"/>
<image xlink:href="C:\Users\ahmad\AppData\Local\Programs\Python\Python313\Lib\site-packages\resources/aws/cost\cost-and-usage-report.png" width="86.4px" height="86.4px" preserveAspectRatio="xMinYMin meet" x="741.6" y="-533.65"/>
<text xml:space="preserve" text-anchor="middle" x="784.8" y="-435.6" font-family="Arial Bold" font-size="17.00" fill="#0f2f6b">Group Chunks</text>
<text xml:space="preserve" text-anchor="middle" x="784.8" y="-416.1" font-family="Arial Bold" font-size="17.00" fill="#0f2f6b">by Sections</text>
<text xml:space="preserve" text-anchor="middle" x="784.8" y="-396.6" font-family="Arial Bold" font-size="17.00" fill="#0f2f6b">Coverage Analysis</text>
</g>
<!-- 48f0a6fe7234423889e768677ee9cabe&#45;&gt;fbc3ddf100a0401bb792081b85fdec7d -->
<g id="edge5" class="edge">
<title>48f0a6fe7234423889e768677ee9cabe&#45;&gt;fbc3ddf100a0401bb792081b85fdec7d</title>
<path fill="none" stroke="#1976d2" stroke-width="2.3" d="M642.4,-495.45C642.4,-495.45 727.73,-495.45 727.73,-495.45"/>
<polygon fill="#1976d2" stroke="#1976d2" stroke-width="2.3" points="727.73,-499.13 738.23,-495.45 727.73,-491.78 727.73,-499.13"/>
<text xml:space="preserve" text-anchor="middle" x="692.1" y="-495.6" font-family="Sans-Serif" font-size="13.00" fill="#2d3436">5. Filtered / Ranked</text>
</g>
<!-- fbc3ddf100a0401bb792081b85fdec7d&#45;&gt;44aa89d15f284de9820006b1b91f4e85 -->
<g id="edge6" class="edge">
<title>fbc3ddf100a0401bb792081b85fdec7d&#45;&gt;44aa89d15f284de9820006b1b91f4e85</title>
<path fill="none" stroke="#1976d2" stroke-width="2.3" d="M827.8,-397.65C827.8,-397.65 913.13,-397.65 913.13,-397.65"/>
<polygon fill="#1976d2" stroke="#1976d2" stroke-width="2.3" points="913.13,-401.33 923.63,-397.65 913.13,-393.98 913.13,-401.33"/>
<text xml:space="preserve" text-anchor="middle" x="877.5" y="-441.6" font-family="Sans-Serif" font-size="13.00" fill="#2d3436">6. Grouped Context</text>
</g>
<!-- b738e1a9a2724179a104a02e48f36617 -->
<g id="node8" class="node">
<title>b738e1a9a2724179a104a02e48f36617</title>
<path fill="#e3f2fd" stroke="none" stroke-width="2.5" d="M1186.8,-549.65C1186.8,-549.65 1124.4,-549.65 1124.4,-549.65 1118.4,-549.65 1112.4,-543.65 1112.4,-537.65 1112.4,-537.65 1112.4,-367.25 1112.4,-367.25 1112.4,-361.25 1118.4,-355.25 1124.4,-355.25 1124.4,-355.25 1186.8,-355.25 1186.8,-355.25 1192.8,-355.25 1198.8,-361.25 1198.8,-367.25 1198.8,-367.25 1198.8,-537.65 1198.8,-537.65 1198.8,-543.65 1192.8,-549.65 1186.8,-549.65"/>
<image xlink:href="C:\Users\ahmad\AppData\Local\Programs\Python\Python313\Lib\site-packages\resources/aws/database\rds.png" width="86.4px" height="86.4px" preserveAspectRatio="xMinYMin meet" x="1112.4" y="-495.65"/>
<text xml:space="preserve" text-anchor="middle" x="1155.6" y="-397.6" font-family="Arial Bold" font-size="17.00" fill="#0f2f6b">MongoDB</text>
<text xml:space="preserve" text-anchor="middle" x="1155.6" y="-378.1" font-family="Arial Bold" font-size="17.00" fill="#0f2f6b">Save Features</text>
<text xml:space="preserve" text-anchor="middle" x="1155.6" y="-358.6" font-family="Arial Bold" font-size="17.00" fill="#0f2f6b">with Metadata</text>
</g>
<!-- 44aa89d15f284de9820006b1b91f4e85&#45;&gt;b738e1a9a2724179a104a02e48f36617 -->
<g id="edge8" class="edge">
<title>44aa89d15f284de9820006b1b91f4e85&#45;&gt;b738e1a9a2724179a104a02e48f36617</title>
<path fill="none" stroke="#1976d2" stroke-width="2.3" d="M1013.2,-378.65C1013.2,-378.65 1098.53,-378.65 1098.53,-378.65"/>
<polygon fill="#1976d2" stroke="#1976d2" stroke-width="2.3" points="1098.53,-382.33 1109.03,-378.65 1098.53,-374.98 1098.53,-382.33"/>
<text xml:space="preserve" text-anchor="middle" x="1062.9" y="-456.6" font-family="Sans-Serif" font-size="13.00" fill="#2d3436">8. Features JSON</text>
</g>
<!-- 4f80f8d0d50f4a6b9400648f37105404 -->
<g id="node9" class="node">
<title>4f80f8d0d50f4a6b9400648f37105404</title>
<path fill="#e3f2fd" stroke="none" stroke-width="2.5" d="M1186.8,-225.65C1186.8,-225.65 1124.4,-225.65 1124.4,-225.65 1118.4,-225.65 1112.4,-219.65 1112.4,-213.65 1112.4,-213.65 1112.4,-43.25 1112.4,-43.25 1112.4,-37.25 1118.4,-31.25 1124.4,-31.25 1124.4,-31.25 1186.8,-31.25 1186.8,-31.25 1192.8,-31.25 1198.8,-37.25 1198.8,-43.25 1198.8,-43.25 1198.8,-213.65 1198.8,-213.65 1198.8,-219.65 1192.8,-225.65 1186.8,-225.65"/>
<image xlink:href="C:\Users\ahmad\AppData\Local\Programs\Python\Python313\Lib\site-packages\resources/aws/database\database.png" width="86.4px" height="86.4px" preserveAspectRatio="xMinYMin meet" x="1112.4" y="-171.65"/>
<text xml:space="preserve" text-anchor="middle" x="1155.6" y="-73.6" font-family="Arial Bold" font-size="17.00" fill="#0f2f6b">Vector Store</text>
<text xml:space="preserve" text-anchor="middle" x="1155.6" y="-54.1" font-family="Arial Bold" font-size="17.00" fill="#0f2f6b">Add Features</text>
<text xml:space="preserve" text-anchor="middle" x="1155.6" y="-34.6" font-family="Arial Bold" font-size="17.00" fill="#0f2f6b">to Embeddings</text>
</g>
<!-- 44aa89d15f284de9820006b1b91f4e85&#45;&gt;4f80f8d0d50f4a6b9400648f37105404 -->
<g id="edge9" class="edge">
<title>44aa89d15f284de9820006b1b91f4e85&#45;&gt;4f80f8d0d50f4a6b9400648f37105404</title>
<path fill="none" stroke="#1976d2" stroke-width="2.3" d="M1013.2,-202.25C1013.2,-202.25 1098.53,-202.25 1098.53,-202.25"/>
<polygon fill="#1976d2" stroke="#1976d2" stroke-width="2.3" points="1098.53,-205.93 1109.03,-202.25 1098.53,-198.58 1098.53,-205.93"/>
<text xml:space="preserve" text-anchor="middle" x="1062.9" y="-132.6" font-family="Sans-Serif" font-size="13.00" fill="#2d3436">9. Add to Vector</text>
</g>
</g>
</svg>
