<?xml version="1.0" encoding="UTF-8" standalone="no"?>
<!DOCTYPE svg PUBLIC "-//W3C//DTD SVG 1.1//EN"
 "http://www.w3.org/Graphics/SVG/1.1/DTD/svg11.dtd">
<!-- Generated by graphviz version 14.1.0 (20251206.1807)
 -->
<!-- Title: Test Case Generation Flow Pages: 1 -->
<svg width="4130pt" height="3274pt"
 viewBox="0.00 0.00 4130.00 3274.00" xmlns="http://www.w3.org/2000/svg" xmlns:xlink="http://www.w3.org/1999/xlink">
<g id="graph0" class="graph" transform="scale(2.77778 2.77778) rotate(0) translate(144 1034.65)">
<title>Test Case Generation Flow</title>
<polygon fill="white" stroke="none" points="-144,144 -144,-1034.65 1342.8,-1034.65 1342.8,144 -144,144"/>
<text xml:space="preserve" text-anchor="middle" x="599.4" y="-8.25" font-family="Arial Bold" font-size="20.00" fill="#2d3436">Test Case Generation Flow</text>
<!-- b4f70cc9bd46437e9b1b472d26b19798 -->
<g id="node1" class="node">
<title>b4f70cc9bd46437e9b1b472d26b19798</title>
<path fill="#e3f2fd" stroke="none" stroke-width="2.5" d="M74.4,-832.65C74.4,-832.65 12,-832.65 12,-832.65 6,-832.65 0,-826.65 0,-820.65 0,-820.65 0,-650.25 0,-650.25 0,-644.25 6,-638.25 12,-638.25 12,-638.25 74.4,-638.25 74.4,-638.25 80.4,-638.25 86.4,-644.25 86.4,-650.25 86.4,-650.25 86.4,-820.65 86.4,-820.65 86.4,-826.65 80.4,-832.65 74.4,-832.65"/>
<image xlink:href="C:\Users\ahmad\AppData\Local\Programs\Python\Python313\Lib\site-packages\resources/aws/general\user.png" width="86.4px" height="86.4px" preserveAspectRatio="xMinYMin meet" x="5.68434e-14" y="-778.65"/>
<text xml:space="preserve" text-anchor="middle" x="43.2" y="-680.6" font-family="Arial Bold" font-size="17.00" fill="#0f2f6b">Feature</text>
<text xml:space="preserve" text-anchor="middle" x="43.2" y="-661.1" font-family="Arial Bold" font-size="17.00" fill="#0f2f6b">Selected</text>
<text xml:space="preserve" text-anchor="middle" x="43.2" y="-641.6" font-family="Arial Bold" font-size="17.00" fill="#0f2f6b">Type &amp; Sections</text>
</g>
<!-- f29781b54f2a4f9094b69d8badde0aad -->
<g id="node3" class="node">
<title>f29781b54f2a4f9094b69d8badde0aad</title>
<path fill="#e3f2fd" stroke="none" stroke-width="2.5" d="M259.8,-613.65C259.8,-613.65 197.4,-613.65 197.4,-613.65 191.4,-613.65 185.4,-607.65 185.4,-601.65 185.4,-601.65 185.4,-431.25 185.4,-431.25 185.4,-425.25 191.4,-419.25 197.4,-419.25 197.4,-419.25 259.8,-419.25 259.8,-419.25 265.8,-419.25 271.8,-425.25 271.8,-431.25 271.8,-431.25 271.8,-601.65 271.8,-601.65 271.8,-607.65 265.8,-613.65 259.8,-613.65"/>
<image xlink:href="C:\Users\ahmad\AppData\Local\Programs\Python\Python313\Lib\site-packages\resources/aws/ml\machine-learning.png" width="86.4px" height="86.4px" preserveAspectRatio="xMinYMin meet" x="185.4" y="-559.65"/>
<text xml:space="preserve" text-anchor="middle" x="228.6" y="-461.6" font-family="Arial Bold" font-size="17.00" fill="#0f2f6b">Embedding Model</text>
<text xml:space="preserve" text-anchor="middle" x="228.6" y="-442.1" font-family="Arial Bold" font-size="17.00" fill="#0f2f6b">text&#45;embedding&#45;3&#45;small</text>
<text xml:space="preserve" text-anchor="middle" x="228.6" y="-422.6" font-family="Arial Bold" font-size="17.00" fill="#0f2f6b">Query Embedding</text>
</g>
<!-- b4f70cc9bd46437e9b1b472d26b19798&#45;&gt;f29781b54f2a4f9094b69d8badde0aad -->
<g id="edge1" class="edge">
<title>b4f70cc9bd46437e9b1b472d26b19798&#45;&gt;f29781b54f2a4f9094b69d8badde0aad</title>
<path fill="none" stroke="#1976d2" stroke-width="2.3" d="M86.25,-673.18C141.08,-673.18 228.8,-673.18 228.8,-673.18 228.8,-673.18 228.8,-627.46 228.8,-627.46"/>
<polygon fill="#1976d2" stroke="#1976d2" stroke-width="2.3" points="232.48,-627.46 228.8,-616.96 225.13,-627.46 232.48,-627.46"/>
<text xml:space="preserve" text-anchor="middle" x="135.9" y="-593.6" font-family="Sans-Serif" font-size="13.00" fill="#2d3436">1. Feature Data</text>
</g>
<!-- 7d4739cb011140f5b733055a4dbbbd5d -->
<g id="node7" class="node">
<title>7d4739cb011140f5b733055a4dbbbd5d</title>
<path fill="#e3f2fd" stroke="none" stroke-width="2.5" d="M816,-743.05C816,-743.05 753.6,-743.05 753.6,-743.05 747.6,-743.05 741.6,-737.05 741.6,-731.05 741.6,-731.05 741.6,-531.85 741.6,-531.85 741.6,-525.85 747.6,-519.85 753.6,-519.85 753.6,-519.85 816,-519.85 816,-519.85 822,-519.85 828,-525.85 828,-531.85 828,-531.85 828,-731.05 828,-731.05 828,-737.05 822,-743.05 816,-743.05"/>
<image xlink:href="C:\Users\ahmad\AppData\Local\Programs\Python\Python313\Lib\site-packages\resources/aws/ml\sagemaker.png" width="86.4px" height="86.4px" preserveAspectRatio="xMinYMin meet" x="741.6" y="-674.65"/>
<text xml:space="preserve" text-anchor="middle" x="784.8" y="-581.7" font-family="Arial Bold" font-size="17.00" fill="#0f2f6b">LLM</text>
<text xml:space="preserve" text-anchor="middle" x="784.8" y="-562.2" font-family="Arial Bold" font-size="17.00" fill="#0f2f6b">GPT&#45;4o&#45;mini</text>
<text xml:space="preserve" text-anchor="middle" x="784.8" y="-542.7" font-family="Arial Bold" font-size="17.00" fill="#0f2f6b">Generate Test Cases</text>
<text xml:space="preserve" text-anchor="middle" x="784.8" y="-523.2" font-family="Arial Bold" font-size="17.00" fill="#0f2f6b">JSON Mode</text>
</g>
<!-- b4f70cc9bd46437e9b1b472d26b19798&#45;&gt;7d4739cb011140f5b733055a4dbbbd5d -->
<g id="edge9" class="edge">
<title>b4f70cc9bd46437e9b1b472d26b19798&#45;&gt;7d4739cb011140f5b733055a4dbbbd5d</title>
<path fill="none" stroke="#1976d2" stroke-width="2.3" stroke-dasharray="5,2" d="M86.28,-708.12C86.28,-708.12 727.62,-708.12 727.62,-708.12"/>
<polygon fill="#1976d2" stroke="#1976d2" stroke-width="2.3" points="727.62,-711.79 738.12,-708.12 727.62,-704.44 727.62,-711.79"/>
<text xml:space="preserve" text-anchor="middle" x="414" y="-813.6" font-family="Sans-Serif" font-size="13.00" fill="#2d3436">9. Feature Info</text>
</g>
<!-- f9dceba58f7e454c93c2fb6996c2a308 -->
<g id="node2" class="node">
<title>f9dceba58f7e454c93c2fb6996c2a308</title>
<path fill="#e3f2fd" stroke="none" stroke-width="2.5" d="M259.8,-252.65C259.8,-252.65 197.4,-252.65 197.4,-252.65 191.4,-252.65 185.4,-246.65 185.4,-240.65 185.4,-240.65 185.4,-70.25 185.4,-70.25 185.4,-64.25 191.4,-58.25 197.4,-58.25 197.4,-58.25 259.8,-58.25 259.8,-58.25 265.8,-58.25 271.8,-64.25 271.8,-70.25 271.8,-70.25 271.8,-240.65 271.8,-240.65 271.8,-246.65 265.8,-252.65 259.8,-252.65"/>
<image xlink:href="C:\Users\ahmad\AppData\Local\Programs\Python\Python313\Lib\site-packages\resources/aws/database\database.png" width="86.4px" height="86.4px" preserveAspectRatio="xMinYMin meet" x="185.4" y="-198.65"/>
<text xml:space="preserve" text-anchor="middle" x="228.6" y="-100.6" font-family="Arial Bold" font-size="17.00" fill="#0f2f6b">Vector Store</text>
<text xml:space="preserve" text-anchor="middle" x="228.6" y="-81.1" font-family="Arial Bold" font-size="17.00" fill="#0f2f6b">Supabase pgvector</text>
<text xml:space="preserve" text-anchor="middle" x="228.6" y="-61.6" font-family="Arial Bold" font-size="17.00" fill="#0f2f6b">SRS Chunks</text>
</g>
<!-- 29b162567d9a4915afb5d1df97e4f03a -->
<g id="node4" class="node">
<title>29b162567d9a4915afb5d1df97e4f03a</title>
<path fill="#e3f2fd" stroke="none" stroke-width="2.5" d="M445.2,-549.65C445.2,-549.65 382.8,-549.65 382.8,-549.65 376.8,-549.65 370.8,-543.65 370.8,-537.65 370.8,-537.65 370.8,-367.25 370.8,-367.25 370.8,-361.25 376.8,-355.25 382.8,-355.25 382.8,-355.25 445.2,-355.25 445.2,-355.25 451.2,-355.25 457.2,-361.25 457.2,-367.25 457.2,-367.25 457.2,-537.65 457.2,-537.65 457.2,-543.65 451.2,-549.65 445.2,-549.65"/>
<image xlink:href="C:\Users\ahmad\AppData\Local\Programs\Python\Python313\Lib\site-packages\resources/aws/migration\application-discovery-service.png" width="86.4px" height="86.4px" preserveAspectRatio="xMinYMin meet" x="370.8" y="-495.65"/>
<text xml:space="preserve" text-anchor="middle" x="414" y="-397.6" font-family="Arial Bold" font-size="17.00" fill="#0f2f6b">Search Sections</text>
<text xml:space="preserve" text-anchor="middle" x="414" y="-378.1" font-family="Arial Bold" font-size="17.00" fill="#0f2f6b">From Matched Sections</text>
<text xml:space="preserve" text-anchor="middle" x="414" y="-358.6" font-family="Arial Bold" font-size="17.00" fill="#0f2f6b">Similarity Search</text>
</g>
<!-- f9dceba58f7e454c93c2fb6996c2a308&#45;&gt;29b162567d9a4915afb5d1df97e4f03a -->
<g id="edge2" class="edge">
<title>f9dceba58f7e454c93c2fb6996c2a308&#45;&gt;29b162567d9a4915afb5d1df97e4f03a</title>
<path fill="none" stroke="#1976d2" stroke-width="2.3" stroke-dasharray="5,2" d="M271.55,-239.15C330.37,-239.15 428.8,-239.15 428.8,-239.15 428.8,-239.15 428.8,-341.49 428.8,-341.49"/>
<polygon fill="#1976d2" stroke="#1976d2" stroke-width="2.3" points="425.13,-341.49 428.8,-351.99 432.48,-341.49 425.13,-341.49"/>
<text xml:space="preserve" text-anchor="middle" x="321.3" y="-258.6" font-family="Sans-Serif" font-size="13.00" fill="#2d3436">2. SRS Chunks</text>
</g>
<!-- c364c515a3cb4d8286a2d65b2bab0b14 -->
<g id="node5" class="node">
<title>c364c515a3cb4d8286a2d65b2bab0b14</title>
<path fill="#e3f2fd" stroke="none" stroke-width="2.5" d="M445.2,-225.65C445.2,-225.65 382.8,-225.65 382.8,-225.65 376.8,-225.65 370.8,-219.65 370.8,-213.65 370.8,-213.65 370.8,-43.25 370.8,-43.25 370.8,-37.25 376.8,-31.25 382.8,-31.25 382.8,-31.25 445.2,-31.25 445.2,-31.25 451.2,-31.25 457.2,-37.25 457.2,-43.25 457.2,-43.25 457.2,-213.65 457.2,-213.65 457.2,-219.65 451.2,-225.65 445.2,-225.65"/>
<image xlink:href="C:\Users\ahmad\AppData\Local\Programs\Python\Python313\Lib\site-packages\resources/aws/migration\application-discovery-service.png" width="86.4px" height="86.4px" preserveAspectRatio="xMinYMin meet" x="370.8" y="-171.65"/>
<text xml:space="preserve" text-anchor="middle" x="414" y="-73.6" font-family="Arial Bold" font-size="17.00" fill="#0f2f6b">Search General</text>
<text xml:space="preserve" text-anchor="middle" x="414" y="-54.1" font-family="Arial Bold" font-size="17.00" fill="#0f2f6b">Context Chunks</text>
<text xml:space="preserve" text-anchor="middle" x="414" y="-34.6" font-family="Arial Bold" font-size="17.00" fill="#0f2f6b">Top&#45;K Results</text>
</g>
<!-- f9dceba58f7e454c93c2fb6996c2a308&#45;&gt;c364c515a3cb4d8286a2d65b2bab0b14 -->
<g id="edge3" class="edge">
<title>f9dceba58f7e454c93c2fb6996c2a308&#45;&gt;c364c515a3cb4d8286a2d65b2bab0b14</title>
<path fill="none" stroke="#1976d2" stroke-width="2.3" stroke-dasharray="5,2" d="M271.6,-141.95C271.6,-141.95 356.93,-141.95 356.93,-141.95"/>
<polygon fill="#1976d2" stroke="#1976d2" stroke-width="2.3" points="356.93,-145.63 367.43,-141.95 356.93,-138.28 356.93,-145.63"/>
<text xml:space="preserve" text-anchor="middle" x="321.3" y="-122.6" font-family="Sans-Serif" font-size="13.00" fill="#2d3436">3. SRS Chunks</text>
</g>
<!-- f29781b54f2a4f9094b69d8badde0aad&#45;&gt;29b162567d9a4915afb5d1df97e4f03a -->
<g id="edge4" class="edge">
<title>f29781b54f2a4f9094b69d8badde0aad&#45;&gt;29b162567d9a4915afb5d1df97e4f03a</title>
<path fill="none" stroke="#1976d2" stroke-width="2.3" d="M271.6,-484.45C271.6,-484.45 356.93,-484.45 356.93,-484.45"/>
<polygon fill="#1976d2" stroke="#1976d2" stroke-width="2.3" points="356.93,-488.13 367.43,-484.45 356.93,-480.78 356.93,-488.13"/>
<text xml:space="preserve" text-anchor="middle" x="321.3" y="-530.6" font-family="Sans-Serif" font-size="13.00" fill="#2d3436">4. Query Embedding</text>
</g>
<!-- f29781b54f2a4f9094b69d8badde0aad&#45;&gt;c364c515a3cb4d8286a2d65b2bab0b14 -->
<g id="edge5" class="edge">
<title>f29781b54f2a4f9094b69d8badde0aad&#45;&gt;c364c515a3cb4d8286a2d65b2bab0b14</title>
<path fill="none" stroke="#1976d2" stroke-width="2.3" d="M228.8,-419.53C228.8,-363.48 228.8,-303.95 228.8,-303.95 228.8,-303.95 399.8,-303.95 399.8,-303.95 399.8,-303.95 399.8,-239.42 399.8,-239.42"/>
<polygon fill="#1976d2" stroke="#1976d2" stroke-width="2.3" points="403.48,-239.42 399.8,-228.92 396.13,-239.42 403.48,-239.42"/>
<text xml:space="preserve" text-anchor="middle" x="321.3" y="-394.6" font-family="Sans-Serif" font-size="13.00" fill="#2d3436">5. Query Embedding</text>
</g>
<!-- 121c38af513e4367817fb5d02e1c7ac7 -->
<g id="node6" class="node">
<title>121c38af513e4367817fb5d02e1c7ac7</title>
<path fill="#e3f2fd" stroke="none" stroke-width="2.5" d="M630.6,-549.65C630.6,-549.65 568.2,-549.65 568.2,-549.65 562.2,-549.65 556.2,-543.65 556.2,-537.65 556.2,-537.65 556.2,-367.25 556.2,-367.25 556.2,-361.25 562.2,-355.25 568.2,-355.25 568.2,-355.25 630.6,-355.25 630.6,-355.25 636.6,-355.25 642.6,-361.25 642.6,-367.25 642.6,-367.25 642.6,-537.65 642.6,-537.65 642.6,-543.65 636.6,-549.65 630.6,-549.65"/>
<image xlink:href="C:\Users\ahmad\AppData\Local\Programs\Python\Python313\Lib\site-packages\resources/aws/cost\cost-and-usage-report.png" width="86.4px" height="86.4px" preserveAspectRatio="xMinYMin meet" x="556.2" y="-495.65"/>
<text xml:space="preserve" text-anchor="middle" x="599.4" y="-397.6" font-family="Arial Bold" font-size="17.00" fill="#0f2f6b">Context</text>
<text xml:space="preserve" text-anchor="middle" x="599.4" y="-378.1" font-family="Arial Bold" font-size="17.00" fill="#0f2f6b">Section + General</text>
<text xml:space="preserve" text-anchor="middle" x="599.4" y="-358.6" font-family="Arial Bold" font-size="17.00" fill="#0f2f6b">Chunks Combined</text>
</g>
<!-- 29b162567d9a4915afb5d1df97e4f03a&#45;&gt;121c38af513e4367817fb5d02e1c7ac7 -->
<g id="edge6" class="edge">
<title>29b162567d9a4915afb5d1df97e4f03a&#45;&gt;121c38af513e4367817fb5d02e1c7ac7</title>
<path fill="none" stroke="#1976d2" stroke-width="2.3" d="M457,-452.45C457,-452.45 542.33,-452.45 542.33,-452.45"/>
<polygon fill="#1976d2" stroke="#1976d2" stroke-width="2.3" points="542.33,-456.13 552.83,-452.45 542.33,-448.78 542.33,-456.13"/>
<text xml:space="preserve" text-anchor="middle" x="506.7" y="-456.6" font-family="Sans-Serif" font-size="13.00" fill="#2d3436">6. Section Context</text>
</g>
<!-- c364c515a3cb4d8286a2d65b2bab0b14&#45;&gt;121c38af513e4367817fb5d02e1c7ac7 -->
<g id="edge7" class="edge">
<title>c364c515a3cb4d8286a2d65b2bab0b14&#45;&gt;121c38af513e4367817fb5d02e1c7ac7</title>
<path fill="none" stroke="#1976d2" stroke-width="2.3" d="M457.09,-128.45C511.98,-128.45 599.8,-128.45 599.8,-128.45 599.8,-128.45 599.8,-341.7 599.8,-341.7"/>
<polygon fill="#1976d2" stroke="#1976d2" stroke-width="2.3" points="596.13,-341.7 599.8,-352.2 603.48,-341.7 596.13,-341.7"/>
<text xml:space="preserve" text-anchor="middle" x="506.7" y="-226.6" font-family="Sans-Serif" font-size="13.00" fill="#2d3436">7. General Context</text>
</g>
<!-- 121c38af513e4367817fb5d02e1c7ac7&#45;&gt;7d4739cb011140f5b733055a4dbbbd5d -->
<g id="edge8" class="edge">
<title>121c38af513e4367817fb5d02e1c7ac7&#45;&gt;7d4739cb011140f5b733055a4dbbbd5d</title>
<path fill="none" stroke="#1976d2" stroke-width="2.3" d="M642.4,-534.75C642.4,-534.75 727.73,-534.75 727.73,-534.75"/>
<polygon fill="#1976d2" stroke="#1976d2" stroke-width="2.3" points="727.73,-538.43 738.23,-534.75 727.73,-531.08 727.73,-538.43"/>
<text xml:space="preserve" text-anchor="middle" x="692.1" y="-599.6" font-family="Sans-Serif" font-size="13.00" fill="#2d3436">8. Combined Context</text>
</g>
<!-- d325db0b7b2041479dad1fdf31e9c4ee -->
<g id="node8" class="node">
<title>d325db0b7b2041479dad1fdf31e9c4ee</title>
<path fill="#e3f2fd" stroke="none" stroke-width="2.5" d="M1001.4,-728.65C1001.4,-728.65 939,-728.65 939,-728.65 933,-728.65 927,-722.65 927,-716.65 927,-716.65 927,-546.25 927,-546.25 927,-540.25 933,-534.25 939,-534.25 939,-534.25 1001.4,-534.25 1001.4,-534.25 1007.4,-534.25 1013.4,-540.25 1013.4,-546.25 1013.4,-546.25 1013.4,-716.65 1013.4,-716.65 1013.4,-722.65 1007.4,-728.65 1001.4,-728.65"/>
<image xlink:href="C:\Users\ahmad\AppData\Local\Programs\Python\Python313\Lib\site-packages\resources/aws/devtools\command-line-interface.png" width="86.4px" height="86.4px" preserveAspectRatio="xMinYMin meet" x="927" y="-674.65"/>
<text xml:space="preserve" text-anchor="middle" x="970.2" y="-576.6" font-family="Arial Bold" font-size="17.00" fill="#0f2f6b">Parse &amp; Validate</text>
<text xml:space="preserve" text-anchor="middle" x="970.2" y="-557.1" font-family="Arial Bold" font-size="17.00" fill="#0f2f6b">Convert to Gherkin</text>
<text xml:space="preserve" text-anchor="middle" x="970.2" y="-537.6" font-family="Arial Bold" font-size="17.00" fill="#0f2f6b">Format</text>
</g>
<!-- 7d4739cb011140f5b733055a4dbbbd5d&#45;&gt;d325db0b7b2041479dad1fdf31e9c4ee -->
<g id="edge10" class="edge">
<title>7d4739cb011140f5b733055a4dbbbd5d&#45;&gt;d325db0b7b2041479dad1fdf31e9c4ee</title>
<path fill="none" stroke="#1976d2" stroke-width="2.3" d="M827.8,-631.45C827.8,-631.45 913.13,-631.45 913.13,-631.45"/>
<polygon fill="#1976d2" stroke="#1976d2" stroke-width="2.3" points="913.13,-635.13 923.63,-631.45 913.13,-627.78 913.13,-635.13"/>
<text xml:space="preserve" text-anchor="middle" x="877.5" y="-635.6" font-family="Sans-Serif" font-size="13.00" fill="#2d3436">10. Test Cases JSON</text>
</g>
<!-- 4c8614d4aa95450cbbb36bd5611c4a4f -->
<g id="node9" class="node">
<title>4c8614d4aa95450cbbb36bd5611c4a4f</title>
<path fill="#e3f2fd" stroke="none" stroke-width="2.5" d="M1186.8,-890.65C1186.8,-890.65 1124.4,-890.65 1124.4,-890.65 1118.4,-890.65 1112.4,-884.65 1112.4,-878.65 1112.4,-878.65 1112.4,-708.25 1112.4,-708.25 1112.4,-702.25 1118.4,-696.25 1124.4,-696.25 1124.4,-696.25 1186.8,-696.25 1186.8,-696.25 1192.8,-696.25 1198.8,-702.25 1198.8,-708.25 1198.8,-708.25 1198.8,-878.65 1198.8,-878.65 1198.8,-884.65 1192.8,-890.65 1186.8,-890.65"/>
<image xlink:href="C:\Users\ahmad\AppData\Local\Programs\Python\Python313\Lib\site-packages\resources/aws/database\rds.png" width="86.4px" height="86.4px" preserveAspectRatio="xMinYMin meet" x="1112.4" y="-836.65"/>
<text xml:space="preserve" text-anchor="middle" x="1155.6" y="-738.6" font-family="Arial Bold" font-size="17.00" fill="#0f2f6b">MongoDB</text>
<text xml:space="preserve" text-anchor="middle" x="1155.6" y="-719.1" font-family="Arial Bold" font-size="17.00" fill="#0f2f6b">Save Test Cases</text>
<text xml:space="preserve" text-anchor="middle" x="1155.6" y="-699.6" font-family="Arial Bold" font-size="17.00" fill="#0f2f6b">with Gherkin</text>
</g>
<!-- d325db0b7b2041479dad1fdf31e9c4ee&#45;&gt;4c8614d4aa95450cbbb36bd5611c4a4f -->
<g id="edge11" class="edge">
<title>d325db0b7b2041479dad1fdf31e9c4ee&#45;&gt;4c8614d4aa95450cbbb36bd5611c4a4f</title>
<path fill="none" stroke="#1976d2" stroke-width="2.3" d="M1013.2,-712.45C1013.2,-712.45 1098.53,-712.45 1098.53,-712.45"/>
<polygon fill="#1976d2" stroke="#1976d2" stroke-width="2.3" points="1098.53,-716.13 1109.03,-712.45 1098.53,-708.78 1098.53,-716.13"/>
<text xml:space="preserve" text-anchor="middle" x="1062.9" y="-797.6" font-family="Sans-Serif" font-size="13.00" fill="#2d3436">11. Save</text>
</g>
<!-- 7f4c1ee135ed437f9a56a6be1cc2adf8 -->
<g id="node10" class="node">
<title>7f4c1ee135ed437f9a56a6be1cc2adf8</title>
<path fill="#e3f2fd" stroke="none" stroke-width="2.5" d="M1186.8,-566.65C1186.8,-566.65 1124.4,-566.65 1124.4,-566.65 1118.4,-566.65 1112.4,-560.65 1112.4,-554.65 1112.4,-554.65 1112.4,-384.25 1112.4,-384.25 1112.4,-378.25 1118.4,-372.25 1124.4,-372.25 1124.4,-372.25 1186.8,-372.25 1186.8,-372.25 1192.8,-372.25 1198.8,-378.25 1198.8,-384.25 1198.8,-384.25 1198.8,-554.65 1198.8,-554.65 1198.8,-560.65 1192.8,-566.65 1186.8,-566.65"/>
<image xlink:href="C:\Users\ahmad\AppData\Local\Programs\Python\Python313\Lib\site-packages\resources/aws/database\database.png" width="86.4px" height="86.4px" preserveAspectRatio="xMinYMin meet" x="1112.4" y="-512.65"/>
<text xml:space="preserve" text-anchor="middle" x="1155.6" y="-414.6" font-family="Arial Bold" font-size="17.00" fill="#0f2f6b">Vector Store</text>
<text xml:space="preserve" text-anchor="middle" x="1155.6" y="-395.1" font-family="Arial Bold" font-size="17.00" fill="#0f2f6b">Add Test Cases</text>
<text xml:space="preserve" text-anchor="middle" x="1155.6" y="-375.6" font-family="Arial Bold" font-size="17.00" fill="#0f2f6b">to Embeddings</text>
</g>
<!-- d325db0b7b2041479dad1fdf31e9c4ee&#45;&gt;7f4c1ee135ed437f9a56a6be1cc2adf8 -->
<g id="edge12" class="edge">
<title>d325db0b7b2041479dad1fdf31e9c4ee&#45;&gt;7f4c1ee135ed437f9a56a6be1cc2adf8</title>
<path fill="none" stroke="#1976d2" stroke-width="2.3" d="M1013.2,-550.45C1013.2,-550.45 1098.53,-550.45 1098.53,-550.45"/>
<polygon fill="#1976d2" stroke="#1976d2" stroke-width="2.3" points="1098.53,-554.13 1109.03,-550.45 1098.53,-546.78 1098.53,-554.13"/>
<text xml:space="preserve" text-anchor="middle" x="1062.9" y="-473.6" font-family="Sans-Serif" font-size="13.00" fill="#2d3436">12. Add to Vector</text>
</g>
</g>
</svg>
