<?xml version="1.0" encoding="UTF-8" standalone="no"?>
<!DOCTYPE svg PUBLIC "-//W3C//DTD SVG 1.1//EN"
 "http://www.w3.org/Graphics/SVG/1.1/DTD/svg11.dtd">
<!-- Generated by graphviz version 14.1.0 (20251206.1807)
 -->
<!-- Title: QBrain System Architecture Pages: 1 -->
<svg width="5216pt" height="5351pt"
 viewBox="0.00 0.00 5216.00 5351.00" xmlns="http://www.w3.org/2000/svg" xmlns:xlink="http://www.w3.org/1999/xlink">
<g id="graph0" class="graph" transform="scale(2.77778 2.77778) rotate(0) translate(144 1782.4)">
<title>QBrain System Architecture</title>
<polygon fill="white" stroke="none" points="-144,144 -144,-1782.4 1733.75,-1782.4 1733.75,144 -144,144"/>
<text xml:space="preserve" text-anchor="middle" x="794.88" y="-7.9" font-family="Arial Bold" font-size="18.00" fill="#2d3436">QBrain System Architecture</text>
<g id="clust1" class="cluster">
<title>cluster_Frontend Layer</title>
<path fill="#e5f5fd" stroke="#aeb6be" stroke-width="2.2" d="M191,-1366.5C191,-1366.5 299,-1366.5 299,-1366.5 305,-1366.5 311,-1372.5 311,-1378.5 311,-1378.5 311,-1618.4 311,-1618.4 311,-1624.4 305,-1630.4 299,-1630.4 299,-1630.4 191,-1630.4 191,-1630.4 185,-1630.4 179,-1624.4 179,-1618.4 179,-1618.4 179,-1378.5 179,-1378.5 179,-1372.5 185,-1366.5 191,-1366.5"/>
<text xml:space="preserve" text-anchor="middle" x="245.12" y="-1611.2" font-family="Arial Bold" font-size="16.00" fill="#0f2f6b">Frontend Layer</text>
</g>
<g id="clust2" class="cluster">
<title>cluster_Backend Layer</title>
<path fill="#e5f5fd" stroke="#aeb6be" stroke-width="2.2" d="M20,-393.5C20,-393.5 281,-393.5 281,-393.5 287,-393.5 293,-399.5 293,-405.5 293,-405.5 293,-1311.5 293,-1311.5 293,-1317.5 287,-1323.5 281,-1323.5 281,-1323.5 20,-1323.5 20,-1323.5 14,-1323.5 8,-1317.5 8,-1311.5 8,-1311.5 8,-405.5 8,-405.5 8,-399.5 14,-393.5 20,-393.5"/>
<text xml:space="preserve" text-anchor="middle" x="73" y="-1304.3" font-family="Arial Bold" font-size="16.00" fill="#0f2f6b">Backend Layer</text>
</g>
<g id="clust3" class="cluster">
<title>cluster_AI Services</title>
<path fill="#ebf3e7" stroke="#aeb6be" stroke-width="2.2" d="M28,-401.5C28,-401.5 273,-401.5 273,-401.5 279,-401.5 285,-407.5 285,-413.5 285,-413.5 285,-1004.6 285,-1004.6 285,-1010.6 279,-1016.6 273,-1016.6 273,-1016.6 28,-1016.6 28,-1016.6 22,-1016.6 16,-1010.6 16,-1004.6 16,-1004.6 16,-413.5 16,-413.5 16,-407.5 22,-401.5 28,-401.5"/>
<text xml:space="preserve" text-anchor="middle" x="67.12" y="-997.4" font-family="Arial Bold" font-size="16.00" fill="#0f2f6b">AI Services</text>
</g>
<g id="clust4" class="cluster">
<title>cluster_Data Storage</title>
<path fill="#e5f5fd" stroke="#aeb6be" stroke-width="2.2" d="M1038,-37C1038,-37 1456,-37 1456,-37 1462,-37 1468,-43 1468,-49 1468,-49 1468,-317.7 1468,-317.7 1468,-323.7 1462,-329.7 1456,-329.7 1456,-329.7 1038,-329.7 1038,-329.7 1032,-329.7 1026,-323.7 1026,-317.7 1026,-317.7 1026,-49 1026,-49 1026,-43 1032,-37 1038,-37"/>
<text xml:space="preserve" text-anchor="middle" x="1083.12" y="-310.5" font-family="Arial Bold" font-size="16.00" fill="#0f2f6b">Data Storage</text>
</g>
<g id="clust5" class="cluster">
<title>cluster_External Services</title>
<path fill="#e5f5fd" stroke="#aeb6be" stroke-width="2.2" d="M391,-372.7C391,-372.7 809,-372.7 809,-372.7 815,-372.7 821,-378.7 821,-384.7 821,-384.7 821,-653.4 821,-653.4 821,-659.4 815,-665.4 809,-665.4 809,-665.4 391,-665.4 391,-665.4 385,-665.4 379,-659.4 379,-653.4 379,-653.4 379,-384.7 379,-384.7 379,-378.7 385,-372.7 391,-372.7"/>
<text xml:space="preserve" text-anchor="middle" x="453.75" y="-646.2" font-family="Arial Bold" font-size="16.00" fill="#0f2f6b">External Services</text>
</g>
<!-- 0436f5ab00424ed9903a12ab32f8bffb -->
<g id="node1" class="node">
<title>0436f5ab00424ed9903a12ab32f8bffb</title>
<path fill="#e3f2fd" stroke="none" stroke-width="2.4" d="M272.6,-1568.9C272.6,-1568.9 217.4,-1568.9 217.4,-1568.9 211.4,-1568.9 205.4,-1562.9 205.4,-1556.9 205.4,-1556.9 205.4,-1386.5 205.4,-1386.5 205.4,-1380.5 211.4,-1374.5 217.4,-1374.5 217.4,-1374.5 272.6,-1374.5 272.6,-1374.5 278.6,-1374.5 284.6,-1380.5 284.6,-1386.5 284.6,-1386.5 284.6,-1556.9 284.6,-1556.9 284.6,-1562.9 278.6,-1568.9 272.6,-1568.9"/>
<image xlink:href="C:\Users\ahmad\AppData\Local\Programs\Python\Python313\Lib\site-packages\resources/aws/general\users.png" width="79.2px" height="79.2px" preserveAspectRatio="xMinYMin meet" x="205.4" y="-1511.3"/>
<text xml:space="preserve" text-anchor="middle" x="245" y="-1415.55" font-family="Arial Bold" font-size="16.00" fill="#0f2f6b">Frontend</text>
<text xml:space="preserve" text-anchor="middle" x="245" y="-1396.8" font-family="Arial Bold" font-size="16.00" fill="#0f2f6b">React 18 + TypeScript</text>
<text xml:space="preserve" text-anchor="middle" x="245" y="-1378.05" font-family="Arial Bold" font-size="16.00" fill="#0f2f6b">Tailwind CSS</text>
</g>
<!-- 4d1a1b83f3864589abd824d083590d8b -->
<g id="node2" class="node">
<title>4d1a1b83f3864589abd824d083590d8b</title>
<path fill="#e3f2fd" stroke="none" stroke-width="2.4" d="M272.6,-1262C272.6,-1262 217.4,-1262 217.4,-1262 211.4,-1262 205.4,-1256 205.4,-1250 205.4,-1250 205.4,-1079.6 205.4,-1079.6 205.4,-1073.6 211.4,-1067.6 217.4,-1067.6 217.4,-1067.6 272.6,-1067.6 272.6,-1067.6 278.6,-1067.6 284.6,-1073.6 284.6,-1079.6 284.6,-1079.6 284.6,-1250 284.6,-1250 284.6,-1256 278.6,-1262 272.6,-1262"/>
<image xlink:href="C:\Users\ahmad\AppData\Local\Programs\Python\Python313\Lib\site-packages\resources/programming/language\nodejs.png" width="79.2px" height="79.2px" preserveAspectRatio="xMinYMin meet" x="205.4" y="-1204.4"/>
<text xml:space="preserve" text-anchor="middle" x="245" y="-1108.65" font-family="Arial Bold" font-size="16.00" fill="#0f2f6b">Backend API</text>
<text xml:space="preserve" text-anchor="middle" x="245" y="-1089.9" font-family="Arial Bold" font-size="16.00" fill="#0f2f6b">Express.js</text>
<text xml:space="preserve" text-anchor="middle" x="245" y="-1071.15" font-family="Arial Bold" font-size="16.00" fill="#0f2f6b">Node.js</text>
</g>
<!-- 0436f5ab00424ed9903a12ab32f8bffb&#45;&gt;4d1a1b83f3864589abd824d083590d8b -->
<g id="edge1" class="edge">
<title>0436f5ab00424ed9903a12ab32f8bffb&#45;&gt;4d1a1b83f3864589abd824d083590d8b</title>
<path fill="none" stroke="#1976d2" stroke-width="2" d="M245,-1374.59C245,-1374.59 245,-1273.83 245,-1273.83"/>
<polygon fill="#1976d2" stroke="#1976d2" stroke-width="2" points="248.15,-1273.83 245,-1264.83 241.85,-1273.83 248.15,-1273.83"/>
<text xml:space="preserve" text-anchor="middle" x="290.38" y="-1327.9" font-family="Sans-Serif" font-size="13.00" fill="#2d3436">HTTP/REST API</text>
</g>
<!-- 98f39f9559b44c78854ea784f18123a4 -->
<g id="node3" class="node">
<title>98f39f9559b44c78854ea784f18123a4</title>
<path fill="#e3f2fd" stroke="none" stroke-width="2.4" d="M264.6,-955.1C264.6,-955.1 209.4,-955.1 209.4,-955.1 203.4,-955.1 197.4,-949.1 197.4,-943.1 197.4,-943.1 197.4,-743.9 197.4,-743.9 197.4,-737.9 203.4,-731.9 209.4,-731.9 209.4,-731.9 264.6,-731.9 264.6,-731.9 270.6,-731.9 276.6,-737.9 276.6,-743.9 276.6,-743.9 276.6,-943.1 276.6,-943.1 276.6,-949.1 270.6,-955.1 264.6,-955.1"/>
<image xlink:href="C:\Users\ahmad\AppData\Local\Programs\Python\Python313\Lib\site-packages\resources/aws/migration\application-discovery-service.png" width="79.2px" height="79.2px" preserveAspectRatio="xMinYMin meet" x="197.4" y="-883.1"/>
<text xml:space="preserve" text-anchor="middle" x="237" y="-791.7" font-family="Arial Bold" font-size="16.00" fill="#0f2f6b">RAG Service</text>
<text xml:space="preserve" text-anchor="middle" x="237" y="-772.95" font-family="Arial Bold" font-size="16.00" fill="#0f2f6b">Feature Extraction</text>
<text xml:space="preserve" text-anchor="middle" x="237" y="-754.2" font-family="Arial Bold" font-size="16.00" fill="#0f2f6b">Test Case Generation</text>
<text xml:space="preserve" text-anchor="middle" x="237" y="-735.45" font-family="Arial Bold" font-size="16.00" fill="#0f2f6b">Query Processing</text>
</g>
<!-- 4d1a1b83f3864589abd824d083590d8b&#45;&gt;98f39f9559b44c78854ea784f18123a4 -->
<g id="edge7" class="edge">
<title>4d1a1b83f3864589abd824d083590d8b&#45;&gt;98f39f9559b44c78854ea784f18123a4</title>
<path fill="none" stroke="#1976d2" stroke-width="2" d="M252.87,-1067.96C252.87,-1067.96 252.87,-967.11 252.87,-967.11"/>
<polygon fill="#1976d2" stroke="#1976d2" stroke-width="2" points="256.02,-967.11 252.87,-958.11 249.72,-967.11 256.02,-967.11"/>
<text xml:space="preserve" text-anchor="middle" x="217.5" y="-1021" font-family="Sans-Serif" font-size="13.00" fill="#2d3436">Feature Extraction</text>
</g>
<!-- 4d1a1b83f3864589abd824d083590d8b&#45;&gt;98f39f9559b44c78854ea784f18123a4 -->
<g id="edge8" class="edge">
<title>4d1a1b83f3864589abd824d083590d8b&#45;&gt;98f39f9559b44c78854ea784f18123a4</title>
<path fill="none" stroke="#1976d2" stroke-width="2" d="M229.13,-1067.96C229.13,-1067.96 229.13,-967.11 229.13,-967.11"/>
<polygon fill="#1976d2" stroke="#1976d2" stroke-width="2" points="232.28,-967.11 229.13,-958.11 225.98,-967.11 232.28,-967.11"/>
<text xml:space="preserve" text-anchor="middle" x="325.38" y="-1021" font-family="Sans-Serif" font-size="13.00" fill="#2d3436">Test Case Generation</text>
</g>
<!-- 16a906a052c54acb9f72ae4b1ff946cc -->
<g id="node6" class="node">
<title>16a906a052c54acb9f72ae4b1ff946cc</title>
<path fill="#e3f2fd" stroke="none" stroke-width="2.4" d="M1274.6,-268.2C1274.6,-268.2 1219.4,-268.2 1219.4,-268.2 1213.4,-268.2 1207.4,-262.2 1207.4,-256.2 1207.4,-256.2 1207.4,-57 1207.4,-57 1207.4,-51 1213.4,-45 1219.4,-45 1219.4,-45 1274.6,-45 1274.6,-45 1280.6,-45 1286.6,-51 1286.6,-57 1286.6,-57 1286.6,-256.2 1286.6,-256.2 1286.6,-262.2 1280.6,-268.2 1274.6,-268.2"/>
<image xlink:href="C:\Users\ahmad\AppData\Local\Programs\Python\Python313\Lib\site-packages\resources/aws/database\rds.png" width="79.2px" height="79.2px" preserveAspectRatio="xMinYMin meet" x="1207.4" y="-196.2"/>
<text xml:space="preserve" text-anchor="middle" x="1247" y="-104.8" font-family="Arial Bold" font-size="16.00" fill="#0f2f6b">MongoDB</text>
<text xml:space="preserve" text-anchor="middle" x="1247" y="-86.05" font-family="Arial Bold" font-size="16.00" fill="#0f2f6b">Projects</text>
<text xml:space="preserve" text-anchor="middle" x="1247" y="-67.3" font-family="Arial Bold" font-size="16.00" fill="#0f2f6b">Features</text>
<text xml:space="preserve" text-anchor="middle" x="1247" y="-48.55" font-family="Arial Bold" font-size="16.00" fill="#0f2f6b">Test Cases</text>
</g>
<!-- 4d1a1b83f3864589abd824d083590d8b&#45;&gt;16a906a052c54acb9f72ae4b1ff946cc -->
<g id="edge15" class="edge">
<title>4d1a1b83f3864589abd824d083590d8b&#45;&gt;16a906a052c54acb9f72ae4b1ff946cc</title>
<path fill="none" stroke="#1976d2" stroke-width="2" d="M284.49,-1132C471.62,-1132 1260.2,-1132 1260.2,-1132 1260.2,-1132 1260.2,-280.04 1260.2,-280.04"/>
<polygon fill="#1976d2" stroke="#1976d2" stroke-width="2" points="1263.35,-280.04 1260.2,-271.04 1257.05,-280.04 1263.35,-280.04"/>
<text xml:space="preserve" text-anchor="middle" x="1382.5" y="-677.55" font-family="Sans-Serif" font-size="13.00" fill="#2d3436">CRUD Operations</text>
</g>
<!-- e562615e838145efaab282f79d4a35ea -->
<g id="node8" class="node">
<title>e562615e838145efaab282f79d4a35ea</title>
<path fill="#e3f2fd" stroke="none" stroke-width="2.4" d="M1447.6,-253.8C1447.6,-253.8 1392.4,-253.8 1392.4,-253.8 1386.4,-253.8 1380.4,-247.8 1380.4,-241.8 1380.4,-241.8 1380.4,-71.4 1380.4,-71.4 1380.4,-65.4 1386.4,-59.4 1392.4,-59.4 1392.4,-59.4 1447.6,-59.4 1447.6,-59.4 1453.6,-59.4 1459.6,-65.4 1459.6,-71.4 1459.6,-71.4 1459.6,-241.8 1459.6,-241.8 1459.6,-247.8 1453.6,-253.8 1447.6,-253.8"/>
<image xlink:href="C:\Users\ahmad\AppData\Local\Programs\Python\Python313\Lib\site-packages\resources/digitalocean/storage\folder.png" width="79.2px" height="79.2px" preserveAspectRatio="xMinYMin meet" x="1380.4" y="-196.2"/>
<text xml:space="preserve" text-anchor="middle" x="1420" y="-100.45" font-family="Arial Bold" font-size="16.00" fill="#0f2f6b">File System</text>
<text xml:space="preserve" text-anchor="middle" x="1420" y="-81.7" font-family="Arial Bold" font-size="16.00" fill="#0f2f6b">SRS Documents</text>
<text xml:space="preserve" text-anchor="middle" x="1420" y="-62.95" font-family="Arial Bold" font-size="16.00" fill="#0f2f6b">(uploads folder)</text>
</g>
<!-- 4d1a1b83f3864589abd824d083590d8b&#45;&gt;e562615e838145efaab282f79d4a35ea -->
<g id="edge2" class="edge">
<title>4d1a1b83f3864589abd824d083590d8b&#45;&gt;e562615e838145efaab282f79d4a35ea</title>
<path fill="none" stroke="#1976d2" stroke-width="2" d="M284.43,-1197C489,-1197 1420,-1197 1420,-1197 1420,-1197 1420,-265.57 1420,-265.57"/>
<polygon fill="#1976d2" stroke="#1976d2" stroke-width="2" points="1423.15,-265.57 1420,-256.57 1416.85,-265.57 1423.15,-265.57"/>
<text xml:space="preserve" text-anchor="middle" x="1556.38" y="-677.55" font-family="Sans-Serif" font-size="13.00" fill="#2d3436">Upload SRS</text>
</g>
<!-- eee9e299557f438e948c0a810c3c3a9b -->
<g id="node11" class="node">
<title>eee9e299557f438e948c0a810c3c3a9b</title>
<path fill="#e3f2fd" stroke="none" stroke-width="2.4" d="M454.6,-603.9C454.6,-603.9 399.4,-603.9 399.4,-603.9 393.4,-603.9 387.4,-597.9 387.4,-591.9 387.4,-591.9 387.4,-392.7 387.4,-392.7 387.4,-386.7 393.4,-380.7 399.4,-380.7 399.4,-380.7 454.6,-380.7 454.6,-380.7 460.6,-380.7 466.6,-386.7 466.6,-392.7 466.6,-392.7 466.6,-591.9 466.6,-591.9 466.6,-597.9 460.6,-603.9 454.6,-603.9"/>
<image xlink:href="C:\Users\ahmad\AppData\Local\Programs\Python\Python313\Lib\site-packages\resources/aws/ml\textract.png" width="79.2px" height="79.2px" preserveAspectRatio="xMinYMin meet" x="387.4" y="-531.9"/>
<text xml:space="preserve" text-anchor="middle" x="427" y="-440.5" font-family="Arial Bold" font-size="16.00" fill="#0f2f6b">Google Document AI</text>
<text xml:space="preserve" text-anchor="middle" x="427" y="-421.75" font-family="Arial Bold" font-size="16.00" fill="#0f2f6b">PDF Processing</text>
<text xml:space="preserve" text-anchor="middle" x="427" y="-403" font-family="Arial Bold" font-size="16.00" fill="#0f2f6b">OCR &amp; Tables</text>
<text xml:space="preserve" text-anchor="middle" x="427" y="-384.25" font-family="Arial Bold" font-size="16.00" fill="#0f2f6b">Forms Extraction</text>
</g>
<!-- 4d1a1b83f3864589abd824d083590d8b&#45;&gt;eee9e299557f438e948c0a810c3c3a9b -->
<g id="edge3" class="edge">
<title>4d1a1b83f3864589abd824d083590d8b&#45;&gt;eee9e299557f438e948c0a810c3c3a9b</title>
<path fill="none" stroke="#1976d2" stroke-width="2" d="M280.6,-1067.84C280.6,-905.67 280.6,-597 280.6,-597 280.6,-597 375.74,-597 375.74,-597"/>
<polygon fill="#1976d2" stroke="#1976d2" stroke-width="2" points="375.74,-600.15 384.74,-597 375.74,-593.85 375.74,-600.15"/>
<text xml:space="preserve" text-anchor="middle" x="883.25" y="-839.4" font-family="Sans-Serif" font-size="13.00" fill="#2d3436">Process PDF</text>
</g>
<!-- 98f39f9559b44c78854ea784f18123a4&#45;&gt;16a906a052c54acb9f72ae4b1ff946cc -->
<g id="edge16" class="edge">
<title>98f39f9559b44c78854ea784f18123a4&#45;&gt;16a906a052c54acb9f72ae4b1ff946cc</title>
<path fill="none" stroke="#1976d2" stroke-width="2" d="M276.38,-899C461.23,-899 1233.8,-899 1233.8,-899 1233.8,-899 1233.8,-280.17 1233.8,-280.17"/>
<polygon fill="#1976d2" stroke="#1976d2" stroke-width="2" points="1236.95,-280.17 1233.8,-271.17 1230.65,-280.17 1236.95,-280.17"/>
<text xml:space="preserve" text-anchor="middle" x="365.12" y="-488.2" font-family="Sans-Serif" font-size="13.00" fill="#2d3436">Save Features/Test Cases</text>
</g>
<!-- 5f8c6c5ffd1d478ca312ed350522266a -->
<g id="node7" class="node">
<title>5f8c6c5ffd1d478ca312ed350522266a</title>
<path fill="#e3f2fd" stroke="none" stroke-width="2.4" d="M1101.6,-268.2C1101.6,-268.2 1046.4,-268.2 1046.4,-268.2 1040.4,-268.2 1034.4,-262.2 1034.4,-256.2 1034.4,-256.2 1034.4,-57 1034.4,-57 1034.4,-51 1040.4,-45 1046.4,-45 1046.4,-45 1101.6,-45 1101.6,-45 1107.6,-45 1113.6,-51 1113.6,-57 1113.6,-57 1113.6,-256.2 1113.6,-256.2 1113.6,-262.2 1107.6,-268.2 1101.6,-268.2"/>
<image xlink:href="C:\Users\ahmad\AppData\Local\Programs\Python\Python313\Lib\site-packages\resources/aws/database\database.png" width="79.2px" height="79.2px" preserveAspectRatio="xMinYMin meet" x="1034.4" y="-196.2"/>
<text xml:space="preserve" text-anchor="middle" x="1074" y="-104.8" font-family="Arial Bold" font-size="16.00" fill="#0f2f6b">Supabase</text>
<text xml:space="preserve" text-anchor="middle" x="1074" y="-86.05" font-family="Arial Bold" font-size="16.00" fill="#0f2f6b">Vector DB</text>
<text xml:space="preserve" text-anchor="middle" x="1074" y="-67.3" font-family="Arial Bold" font-size="16.00" fill="#0f2f6b">(pgvector)</text>
<text xml:space="preserve" text-anchor="middle" x="1074" y="-48.55" font-family="Arial Bold" font-size="16.00" fill="#0f2f6b">Embeddings</text>
</g>
<!-- 98f39f9559b44c78854ea784f18123a4&#45;&gt;5f8c6c5ffd1d478ca312ed350522266a -->
<g id="edge9" class="edge">
<title>98f39f9559b44c78854ea784f18123a4&#45;&gt;5f8c6c5ffd1d478ca312ed350522266a</title>
<path fill="none" stroke="#1976d2" stroke-width="2" d="M250.2,-732.06C250.2,-537.65 250.2,-157 250.2,-157 250.2,-157 1022.52,-157 1022.52,-157"/>
<polygon fill="#1976d2" stroke="#1976d2" stroke-width="2" points="1022.52,-160.15 1031.52,-157 1022.52,-153.85 1022.52,-160.15"/>
<text xml:space="preserve" text-anchor="middle" x="1049" y="-488.2" font-family="Sans-Serif" font-size="13.00" fill="#2d3436">Similarity Search</text>
</g>
<!-- 98f39f9559b44c78854ea784f18123a4&#45;&gt;5f8c6c5ffd1d478ca312ed350522266a -->
<g id="edge17" class="edge">
<title>98f39f9559b44c78854ea784f18123a4&#45;&gt;5f8c6c5ffd1d478ca312ed350522266a</title>
<path fill="none" stroke="#1976d2" stroke-width="2" stroke-dasharray="5,2" d="M223.8,-731.94C223.8,-524.66 223.8,-101 223.8,-101 223.8,-101 1022.39,-101 1022.39,-101"/>
<polygon fill="#1976d2" stroke="#1976d2" stroke-width="2" points="1022.39,-104.15 1031.39,-101 1022.39,-97.85 1022.39,-104.15"/>
<text xml:space="preserve" text-anchor="middle" x="1245.5" y="-488.2" font-family="Sans-Serif" font-size="13.00" fill="#2d3436">Add to Vector Store</text>
</g>
<!-- 1b92881d08074982bff4a22db8975713 -->
<g id="node9" class="node">
<title>1b92881d08074982bff4a22db8975713</title>
<path fill="#e3f2fd" stroke="none" stroke-width="2.4" d="M800.6,-603.9C800.6,-603.9 745.4,-603.9 745.4,-603.9 739.4,-603.9 733.4,-597.9 733.4,-591.9 733.4,-591.9 733.4,-392.7 733.4,-392.7 733.4,-386.7 739.4,-380.7 745.4,-380.7 745.4,-380.7 800.6,-380.7 800.6,-380.7 806.6,-380.7 812.6,-386.7 812.6,-392.7 812.6,-392.7 812.6,-591.9 812.6,-591.9 812.6,-597.9 806.6,-603.9 800.6,-603.9"/>
<image xlink:href="C:\Users\ahmad\AppData\Local\Programs\Python\Python313\Lib\site-packages\resources/aws/ml\sagemaker.png" width="79.2px" height="79.2px" preserveAspectRatio="xMinYMin meet" x="733.4" y="-531.9"/>
<text xml:space="preserve" text-anchor="middle" x="773" y="-440.5" font-family="Arial Bold" font-size="16.00" fill="#0f2f6b">OpenAI API</text>
<text xml:space="preserve" text-anchor="middle" x="773" y="-421.75" font-family="Arial Bold" font-size="16.00" fill="#0f2f6b">GPT&#45;4o&#45;mini</text>
<text xml:space="preserve" text-anchor="middle" x="773" y="-403" font-family="Arial Bold" font-size="16.00" fill="#0f2f6b">Feature &amp; Test Case</text>
<text xml:space="preserve" text-anchor="middle" x="773" y="-384.25" font-family="Arial Bold" font-size="16.00" fill="#0f2f6b">Generation</text>
</g>
<!-- 98f39f9559b44c78854ea784f18123a4&#45;&gt;1b92881d08074982bff4a22db8975713 -->
<g id="edge10" class="edge">
<title>98f39f9559b44c78854ea784f18123a4&#45;&gt;1b92881d08074982bff4a22db8975713</title>
<path fill="none" stroke="#1976d2" stroke-width="2" d="M276.41,-844C400.2,-844 773,-844 773,-844 773,-844 773,-615.61 773,-615.61"/>
<polygon fill="#1976d2" stroke="#1976d2" stroke-width="2" points="776.15,-615.61 773,-606.61 769.85,-615.61 776.15,-615.61"/>
<text xml:space="preserve" text-anchor="middle" x="820.62" y="-677.55" font-family="Sans-Serif" font-size="13.00" fill="#2d3436">LLM Calls</text>
</g>
<!-- 339c2c1511cb4c54985fb7f99a4e487b -->
<g id="node10" class="node">
<title>339c2c1511cb4c54985fb7f99a4e487b</title>
<path fill="#e3f2fd" stroke="none" stroke-width="2.4" d="M627.6,-589.5C627.6,-589.5 572.4,-589.5 572.4,-589.5 566.4,-589.5 560.4,-583.5 560.4,-577.5 560.4,-577.5 560.4,-407.1 560.4,-407.1 560.4,-401.1 566.4,-395.1 572.4,-395.1 572.4,-395.1 627.6,-395.1 627.6,-395.1 633.6,-395.1 639.6,-401.1 639.6,-407.1 639.6,-407.1 639.6,-577.5 639.6,-577.5 639.6,-583.5 633.6,-589.5 627.6,-589.5"/>
<image xlink:href="C:\Users\ahmad\AppData\Local\Programs\Python\Python313\Lib\site-packages\resources/aws/ml\machine-learning.png" width="79.2px" height="79.2px" preserveAspectRatio="xMinYMin meet" x="560.4" y="-531.9"/>
<text xml:space="preserve" text-anchor="middle" x="600" y="-436.15" font-family="Arial Bold" font-size="16.00" fill="#0f2f6b">OpenAI API</text>
<text xml:space="preserve" text-anchor="middle" x="600" y="-417.4" font-family="Arial Bold" font-size="16.00" fill="#0f2f6b">text&#45;embedding&#45;3&#45;small</text>
<text xml:space="preserve" text-anchor="middle" x="600" y="-398.65" font-family="Arial Bold" font-size="16.00" fill="#0f2f6b">1536 dimensions</text>
</g>
<!-- 98f39f9559b44c78854ea784f18123a4&#45;&gt;339c2c1511cb4c54985fb7f99a4e487b -->
<g id="edge11" class="edge">
<title>98f39f9559b44c78854ea784f18123a4&#45;&gt;339c2c1511cb4c54985fb7f99a4e487b</title>
<path fill="none" stroke="#1976d2" stroke-width="2" d="M276.55,-788C373.14,-788 613.2,-788 613.2,-788 613.2,-788 613.2,-601.15 613.2,-601.15"/>
<polygon fill="#1976d2" stroke="#1976d2" stroke-width="2" points="616.35,-601.15 613.2,-592.15 610.05,-601.15 616.35,-601.15"/>
<text xml:space="preserve" text-anchor="middle" x="749.12" y="-677.55" font-family="Sans-Serif" font-size="13.00" fill="#2d3436">Query Embeddings</text>
</g>
<!-- 75e255e0a69b4a0bb004bc6a47987c5d -->
<g id="node4" class="node">
<title>75e255e0a69b4a0bb004bc6a47987c5d</title>
<path fill="#e3f2fd" stroke="none" stroke-width="2.4" d="M91.6,-955.1C91.6,-955.1 36.4,-955.1 36.4,-955.1 30.4,-955.1 24.4,-949.1 24.4,-943.1 24.4,-943.1 24.4,-743.9 24.4,-743.9 24.4,-737.9 30.4,-731.9 36.4,-731.9 36.4,-731.9 91.6,-731.9 91.6,-731.9 97.6,-731.9 103.6,-737.9 103.6,-743.9 103.6,-743.9 103.6,-943.1 103.6,-943.1 103.6,-949.1 97.6,-955.1 91.6,-955.1"/>
<image xlink:href="C:\Users\ahmad\AppData\Local\Programs\Python\Python313\Lib\site-packages\resources/aws/management\systems-manager-documents.png" width="79.2px" height="79.2px" preserveAspectRatio="xMinYMin meet" x="24.4" y="-883.1"/>
<text xml:space="preserve" text-anchor="middle" x="64" y="-791.7" font-family="Arial Bold" font-size="16.00" fill="#0f2f6b">Text Splitter</text>
<text xml:space="preserve" text-anchor="middle" x="64" y="-772.95" font-family="Arial Bold" font-size="16.00" fill="#0f2f6b">RecursiveCharacter</text>
<text xml:space="preserve" text-anchor="middle" x="64" y="-754.2" font-family="Arial Bold" font-size="16.00" fill="#0f2f6b">2000 chars</text>
<text xml:space="preserve" text-anchor="middle" x="64" y="-735.45" font-family="Arial Bold" font-size="16.00" fill="#0f2f6b">300 overlap</text>
</g>
<!-- bfabd56ce52f43739bd7b0e230e6d912 -->
<g id="node5" class="node">
<title>bfabd56ce52f43739bd7b0e230e6d912</title>
<path fill="#e3f2fd" stroke="none" stroke-width="2.4" d="M91.6,-575.1C91.6,-575.1 36.4,-575.1 36.4,-575.1 30.4,-575.1 24.4,-569.1 24.4,-563.1 24.4,-563.1 24.4,-421.5 24.4,-421.5 24.4,-415.5 30.4,-409.5 36.4,-409.5 36.4,-409.5 91.6,-409.5 91.6,-409.5 97.6,-409.5 103.6,-415.5 103.6,-421.5 103.6,-421.5 103.6,-563.1 103.6,-563.1 103.6,-569.1 97.6,-575.1 91.6,-575.1"/>
<image xlink:href="C:\Users\ahmad\AppData\Local\Programs\Python\Python313\Lib\site-packages\resources/aws/network\elb-network-load-balancer.png" width="79.2px" height="79.2px" preserveAspectRatio="xMinYMin meet" x="24.4" y="-531.9"/>
<text xml:space="preserve" text-anchor="middle" x="64" y="-431.8" font-family="Arial Bold" font-size="16.00" fill="#0f2f6b">Chunking</text>
<text xml:space="preserve" text-anchor="middle" x="64" y="-413.05" font-family="Arial Bold" font-size="16.00" fill="#0f2f6b">Text Segments</text>
</g>
<!-- 75e255e0a69b4a0bb004bc6a47987c5d&#45;&gt;bfabd56ce52f43739bd7b0e230e6d912 -->
<g id="edge13" class="edge">
<title>75e255e0a69b4a0bb004bc6a47987c5d&#45;&gt;bfabd56ce52f43739bd7b0e230e6d912</title>
<path fill="none" stroke="#1976d2" stroke-width="2" d="M56.08,-732.38C56.08,-732.38 56.08,-586.89 56.08,-586.89"/>
<polygon fill="#1976d2" stroke="#1976d2" stroke-width="2" points="59.23,-586.89 56.08,-577.89 52.93,-586.89 59.23,-586.89"/>
<text xml:space="preserve" text-anchor="middle" x="165.25" y="-677.55" font-family="Sans-Serif" font-size="13.00" fill="#2d3436">Split Documents</text>
</g>
<!-- 75e255e0a69b4a0bb004bc6a47987c5d&#45;&gt;339c2c1511cb4c54985fb7f99a4e487b -->
<g id="edge5" class="edge">
<title>75e255e0a69b4a0bb004bc6a47987c5d&#45;&gt;339c2c1511cb4c54985fb7f99a4e487b</title>
<path fill="none" stroke="#1976d2" stroke-width="2" d="M40.24,-732.35C40.24,-697.52 40.24,-668 40.24,-668 40.24,-668 586.8,-668 586.8,-668 586.8,-668 586.8,-601.43 586.8,-601.43"/>
<polygon fill="#1976d2" stroke="#1976d2" stroke-width="2" points="589.95,-601.43 586.8,-592.43 583.65,-601.43 589.95,-601.43"/>
<text xml:space="preserve" text-anchor="middle" x="629.25" y="-677.55" font-family="Sans-Serif" font-size="13.00" fill="#2d3436">Text Chunks</text>
</g>
<!-- bfabd56ce52f43739bd7b0e230e6d912&#45;&gt;339c2c1511cb4c54985fb7f99a4e487b -->
<g id="edge14" class="edge">
<title>bfabd56ce52f43739bd7b0e230e6d912&#45;&gt;339c2c1511cb4c54985fb7f99a4e487b</title>
<path fill="none" stroke="#1976d2" stroke-width="2" d="M64,-409.63C64,-367.07 64,-324 64,-324 64,-324 586.8,-324 586.8,-324 586.8,-324 586.8,-383.35 586.8,-383.35"/>
<polygon fill="#1976d2" stroke="#1976d2" stroke-width="2" points="583.65,-383.35 586.8,-392.35 589.95,-383.35 583.65,-383.35"/>
<text xml:space="preserve" text-anchor="middle" x="360" y="-677.55" font-family="Sans-Serif" font-size="13.00" fill="#2d3436">Text Chunks</text>
</g>
<!-- 339c2c1511cb4c54985fb7f99a4e487b&#45;&gt;5f8c6c5ffd1d478ca312ed350522266a -->
<g id="edge6" class="edge">
<title>339c2c1511cb4c54985fb7f99a4e487b&#45;&gt;5f8c6c5ffd1d478ca312ed350522266a</title>
<path fill="none" stroke="#1976d2" stroke-width="2" d="M613.2,-395.44C613.2,-314.42 613.2,-212 613.2,-212 613.2,-212 1022.69,-212 1022.69,-212"/>
<polygon fill="#1976d2" stroke="#1976d2" stroke-width="2" points="1022.69,-215.15 1031.69,-212 1022.69,-208.85 1022.69,-215.15"/>
<text xml:space="preserve" text-anchor="middle" x="803" y="-334.1" font-family="Sans-Serif" font-size="13.00" fill="#2d3436">Embeddings</text>
</g>
<!-- eee9e299557f438e948c0a810c3c3a9b&#45;&gt;75e255e0a69b4a0bb004bc6a47987c5d -->
<g id="edge4" class="edge">
<title>eee9e299557f438e948c0a810c3c3a9b&#45;&gt;75e255e0a69b4a0bb004bc6a47987c5d</title>
<path fill="none" stroke="#1976d2" stroke-width="2" d="M387.42,-590C297.93,-590 87.76,-590 87.76,-590 87.76,-590 87.76,-719.92 87.76,-719.92"/>
<polygon fill="#1976d2" stroke="#1976d2" stroke-width="2" points="84.61,-719.92 87.76,-728.92 90.91,-719.92 84.61,-719.92"/>
<text xml:space="preserve" text-anchor="middle" x="535.25" y="-677.55" font-family="Sans-Serif" font-size="13.00" fill="#2d3436">Extracted Text</text>
</g>
<!-- eee9e299557f438e948c0a810c3c3a9b&#45;&gt;75e255e0a69b4a0bb004bc6a47987c5d -->
<g id="edge12" class="edge">
<title>eee9e299557f438e948c0a810c3c3a9b&#45;&gt;75e255e0a69b4a0bb004bc6a47987c5d</title>
<path fill="none" stroke="#1976d2" stroke-width="2" d="M387.64,-582C295.19,-582 71.92,-582 71.92,-582 71.92,-582 71.92,-720.19 71.92,-720.19"/>
<polygon fill="#1976d2" stroke="#1976d2" stroke-width="2" points="68.77,-720.19 71.92,-729.19 75.07,-720.19 68.77,-720.19"/>
<text xml:space="preserve" text-anchor="middle" x="259.25" y="-677.55" font-family="Sans-Serif" font-size="13.00" fill="#2d3436">Extracted Text</text>
</g>
</g>
</svg>
