<?xml version="1.0" encoding="UTF-8" standalone="no"?>
<!DOCTYPE svg PUBLIC "-//W3C//DTD SVG 1.1//EN"
 "http://www.w3.org/Graphics/SVG/1.1/DTD/svg11.dtd">
<!-- Generated by graphviz version 14.1.0 (20251206.1807)
 -->
<!-- Title: Complete Workflow Pages: 1 -->
<svg width="5955pt" height="2808pt"
 viewBox="0.00 0.00 5955.00 2808.00" xmlns="http://www.w3.org/2000/svg" xmlns:xlink="http://www.w3.org/1999/xlink">
<g id="graph0" class="graph" transform="scale(2.77778 2.77778) rotate(0) translate(144 867)">
<title>Complete Workflow</title>
<polygon fill="white" stroke="none" points="-144,144 -144,-867 1999.8,-867 1999.8,144 -144,144"/>
<text xml:space="preserve" text-anchor="middle" x="927.9" y="-7.9" font-family="Arial Bold" font-size="18.00" fill="#2d3436">Complete Workflow</text>
<g id="clust1" class="cluster">
<title>cluster_Project Setup</title>
<path fill="#e5f5fd" stroke="#aeb6be" stroke-width="2.2" d="M20,-242C20,-242 1030.6,-242 1030.6,-242 1036.6,-242 1042.6,-248 1042.6,-254 1042.6,-254 1042.6,-524 1042.6,-524 1042.6,-530 1036.6,-536 1030.6,-536 1030.6,-536 20,-536 20,-536 14,-536 8,-530 8,-524 8,-524 8,-254 8,-254 8,-248 14,-242 20,-242"/>
<text xml:space="preserve" text-anchor="middle" x="64.38" y="-517.75" font-family="Arial Bold" font-size="15.00" fill="#0f2f6b">Project Setup</text>
</g>
<g id="clust2" class="cluster">
<title>cluster_Feature Extraction</title>
<path fill="#e5f5fd" stroke="#aeb6be" stroke-width="2.2" d="M1093.6,-183C1093.6,-183 1433.2,-183 1433.2,-183 1439.2,-183 1445.2,-189 1445.2,-195 1445.2,-195 1445.2,-703 1445.2,-703 1445.2,-709 1439.2,-715 1433.2,-715 1433.2,-715 1093.6,-715 1093.6,-715 1087.6,-715 1081.6,-709 1081.6,-703 1081.6,-703 1081.6,-195 1081.6,-195 1081.6,-189 1087.6,-183 1093.6,-183"/>
<text xml:space="preserve" text-anchor="middle" x="1155.6" y="-696.75" font-family="Arial Bold" font-size="15.00" fill="#0f2f6b">Feature Extraction</text>
</g>
<g id="clust3" class="cluster">
<title>cluster_Test Case Generation</title>
<path fill="#e5f5fd" stroke="#aeb6be" stroke-width="2.2" d="M1496.2,-37C1496.2,-37 1835.8,-37 1835.8,-37 1841.8,-37 1847.8,-43 1847.8,-49 1847.8,-49 1847.8,-557 1847.8,-557 1847.8,-563 1841.8,-569 1835.8,-569 1835.8,-569 1496.2,-569 1496.2,-569 1490.2,-569 1484.2,-563 1484.2,-557 1484.2,-557 1484.2,-49 1484.2,-49 1484.2,-43 1490.2,-37 1496.2,-37"/>
<text xml:space="preserve" text-anchor="middle" x="1569.07" y="-550.75" font-family="Arial Bold" font-size="15.00" fill="#0f2f6b">Test Case Generation</text>
</g>
<!-- d14603c3e05042b698c89dabc7c3c0ca -->
<g id="node1" class="node">
<title>d14603c3e05042b698c89dabc7c3c0ca</title>
<path fill="#e3f2fd" stroke="none" stroke-width="2.4" d="M83.2,-458.8C83.2,-458.8 28,-458.8 28,-458.8 22,-458.8 16,-452.8 16,-446.8 16,-446.8 16,-305.2 16,-305.2 16,-299.2 22,-293.2 28,-293.2 28,-293.2 83.2,-293.2 83.2,-293.2 89.2,-293.2 95.2,-299.2 95.2,-305.2 95.2,-305.2 95.2,-446.8 95.2,-446.8 95.2,-452.8 89.2,-458.8 83.2,-458.8"/>
<image xlink:href="C:\Users\ahmad\AppData\Local\Programs\Python\Python313\Lib\site-packages\resources/aws/general\user.png" width="79.2px" height="79.2px" preserveAspectRatio="xMinYMin meet" x="16" y="-415.6"/>
<text xml:space="preserve" text-anchor="middle" x="55.6" y="-315.5" font-family="Arial Bold" font-size="16.00" fill="#0f2f6b">Step 1:</text>
<text xml:space="preserve" text-anchor="middle" x="55.6" y="-296.75" font-family="Arial Bold" font-size="16.00" fill="#0f2f6b">Create Project</text>
</g>
<!-- 2b9c544b57f346f5abea65fda909e128 -->
<g id="node2" class="node">
<title>2b9c544b57f346f5abea65fda909e128</title>
<path fill="#e3f2fd" stroke="none" stroke-width="2.4" d="M217.4,-487.6C217.4,-487.6 162.2,-487.6 162.2,-487.6 156.2,-487.6 150.2,-481.6 150.2,-475.6 150.2,-475.6 150.2,-276.4 150.2,-276.4 150.2,-270.4 156.2,-264.4 162.2,-264.4 162.2,-264.4 217.4,-264.4 217.4,-264.4 223.4,-264.4 229.4,-270.4 229.4,-276.4 229.4,-276.4 229.4,-475.6 229.4,-475.6 229.4,-481.6 223.4,-487.6 217.4,-487.6"/>
<image xlink:href="C:\Users\ahmad\AppData\Local\Programs\Python\Python313\Lib\site-packages\resources/digitalocean/storage\folder.png" width="79.2px" height="79.2px" preserveAspectRatio="xMinYMin meet" x="150.2" y="-415.6"/>
<text xml:space="preserve" text-anchor="middle" x="189.8" y="-324.2" font-family="Arial Bold" font-size="16.00" fill="#0f2f6b">Step 2:</text>
<text xml:space="preserve" text-anchor="middle" x="189.8" y="-305.45" font-family="Arial Bold" font-size="16.00" fill="#0f2f6b">Upload SRS</text>
<text xml:space="preserve" text-anchor="middle" x="189.8" y="-286.7" font-family="Arial Bold" font-size="16.00" fill="#0f2f6b">Document</text>
<text xml:space="preserve" text-anchor="middle" x="189.8" y="-267.95" font-family="Arial Bold" font-size="16.00" fill="#0f2f6b">(PDF/TXT)</text>
</g>
<!-- d14603c3e05042b698c89dabc7c3c0ca&#45;&gt;2b9c544b57f346f5abea65fda909e128 -->
<g id="edge1" class="edge">
<title>d14603c3e05042b698c89dabc7c3c0ca&#45;&gt;2b9c544b57f346f5abea65fda909e128</title>
<path fill="none" stroke="#1976d2" stroke-width="2.1" d="M95.14,-376C95.14,-376 136.87,-376 136.87,-376"/>
<polygon fill="#1976d2" stroke="#1976d2" stroke-width="2.1" points="136.87,-379.68 147.37,-376 136.87,-372.33 136.87,-379.68"/>
<text xml:space="preserve" text-anchor="middle" x="122.7" y="-380.15" font-family="Sans-Serif" font-size="13.00" fill="#2d3436">1. Create Project</text>
</g>
<!-- e0f5ce16ebbd4a27836b3dd7916ce1a4 -->
<g id="node3" class="node">
<title>e0f5ce16ebbd4a27836b3dd7916ce1a4</title>
<path fill="#e3f2fd" stroke="none" stroke-width="2.4" d="M351.6,-487.6C351.6,-487.6 296.4,-487.6 296.4,-487.6 290.4,-487.6 284.4,-481.6 284.4,-475.6 284.4,-475.6 284.4,-276.4 284.4,-276.4 284.4,-270.4 290.4,-264.4 296.4,-264.4 296.4,-264.4 351.6,-264.4 351.6,-264.4 357.6,-264.4 363.6,-270.4 363.6,-276.4 363.6,-276.4 363.6,-475.6 363.6,-475.6 363.6,-481.6 357.6,-487.6 351.6,-487.6"/>
<image xlink:href="C:\Users\ahmad\AppData\Local\Programs\Python\Python313\Lib\site-packages\resources/aws/ml\textract.png" width="79.2px" height="79.2px" preserveAspectRatio="xMinYMin meet" x="284.4" y="-415.6"/>
<text xml:space="preserve" text-anchor="middle" x="324" y="-324.2" font-family="Arial Bold" font-size="16.00" fill="#0f2f6b">Step 3:</text>
<text xml:space="preserve" text-anchor="middle" x="324" y="-305.45" font-family="Arial Bold" font-size="16.00" fill="#0f2f6b">Google Document AI</text>
<text xml:space="preserve" text-anchor="middle" x="324" y="-286.7" font-family="Arial Bold" font-size="16.00" fill="#0f2f6b">Extract Text</text>
<text xml:space="preserve" text-anchor="middle" x="324" y="-267.95" font-family="Arial Bold" font-size="16.00" fill="#0f2f6b">Tables &amp; Forms</text>
</g>
<!-- 2b9c544b57f346f5abea65fda909e128&#45;&gt;e0f5ce16ebbd4a27836b3dd7916ce1a4 -->
<g id="edge2" class="edge">
<title>2b9c544b57f346f5abea65fda909e128&#45;&gt;e0f5ce16ebbd4a27836b3dd7916ce1a4</title>
<path fill="none" stroke="#1976d2" stroke-width="2.1" d="M229.34,-376C229.34,-376 271.07,-376 271.07,-376"/>
<polygon fill="#1976d2" stroke="#1976d2" stroke-width="2.1" points="271.07,-379.68 281.57,-376 271.07,-372.33 271.07,-379.68"/>
<text xml:space="preserve" text-anchor="middle" x="256.9" y="-396.65" font-family="Sans-Serif" font-size="13.00" fill="#2d3436">2. Upload SRS File</text>
<text xml:space="preserve" text-anchor="middle" x="256.9" y="-380.15" font-family="Sans-Serif" font-size="13.00" fill="#2d3436">(PDF or TXT)</text>
</g>
<!-- fc77729c43344b5d84683d0873c0ba81 -->
<g id="node4" class="node">
<title>fc77729c43344b5d84683d0873c0ba81</title>
<path fill="#e3f2fd" stroke="none" stroke-width="2.4" d="M485.8,-502C485.8,-502 430.6,-502 430.6,-502 424.6,-502 418.6,-496 418.6,-490 418.6,-490 418.6,-262 418.6,-262 418.6,-256 424.6,-250 430.6,-250 430.6,-250 485.8,-250 485.8,-250 491.8,-250 497.8,-256 497.8,-262 497.8,-262 497.8,-490 497.8,-490 497.8,-496 491.8,-502 485.8,-502"/>
<image xlink:href="C:\Users\ahmad\AppData\Local\Programs\Python\Python313\Lib\site-packages\resources/aws/management\systems-manager-documents.png" width="79.2px" height="79.2px" preserveAspectRatio="xMinYMin meet" x="418.6" y="-415.6"/>
<text xml:space="preserve" text-anchor="middle" x="458.2" y="-328.55" font-family="Arial Bold" font-size="16.00" fill="#0f2f6b">Step 4:</text>
<text xml:space="preserve" text-anchor="middle" x="458.2" y="-309.8" font-family="Arial Bold" font-size="16.00" fill="#0f2f6b">Text Splitter</text>
<text xml:space="preserve" text-anchor="middle" x="458.2" y="-291.05" font-family="Arial Bold" font-size="16.00" fill="#0f2f6b">RecursiveCharacter</text>
<text xml:space="preserve" text-anchor="middle" x="458.2" y="-272.3" font-family="Arial Bold" font-size="16.00" fill="#0f2f6b">2000 chars</text>
<text xml:space="preserve" text-anchor="middle" x="458.2" y="-253.55" font-family="Arial Bold" font-size="16.00" fill="#0f2f6b">300 overlap</text>
</g>
<!-- e0f5ce16ebbd4a27836b3dd7916ce1a4&#45;&gt;fc77729c43344b5d84683d0873c0ba81 -->
<g id="edge3" class="edge">
<title>e0f5ce16ebbd4a27836b3dd7916ce1a4&#45;&gt;fc77729c43344b5d84683d0873c0ba81</title>
<path fill="none" stroke="#1976d2" stroke-width="2.1" d="M363.54,-376C363.54,-376 405.27,-376 405.27,-376"/>
<polygon fill="#1976d2" stroke="#1976d2" stroke-width="2.1" points="405.27,-379.68 415.77,-376 405.27,-372.33 405.27,-379.68"/>
<text xml:space="preserve" text-anchor="middle" x="391.1" y="-396.65" font-family="Sans-Serif" font-size="13.00" fill="#2d3436">3. Extracted Text</text>
<text xml:space="preserve" text-anchor="middle" x="391.1" y="-380.15" font-family="Sans-Serif" font-size="13.00" fill="#2d3436">(Full Document)</text>
</g>
<!-- 89dc8aa5c0234f99a76c17f181167ab1 -->
<g id="node5" class="node">
<title>89dc8aa5c0234f99a76c17f181167ab1</title>
<path fill="#e3f2fd" stroke="none" stroke-width="2.4" d="M620,-472.2C620,-472.2 564.8,-472.2 564.8,-472.2 558.8,-472.2 552.8,-466.2 552.8,-460.2 552.8,-460.2 552.8,-289.8 552.8,-289.8 552.8,-283.8 558.8,-277.8 564.8,-277.8 564.8,-277.8 620,-277.8 620,-277.8 626,-277.8 632,-283.8 632,-289.8 632,-289.8 632,-460.2 632,-460.2 632,-466.2 626,-472.2 620,-472.2"/>
<image xlink:href="C:\Users\ahmad\AppData\Local\Programs\Python\Python313\Lib\site-packages\resources/aws/network\elb-network-load-balancer.png" width="79.2px" height="79.2px" preserveAspectRatio="xMinYMin meet" x="552.8" y="-414.6"/>
<text xml:space="preserve" text-anchor="middle" x="592.4" y="-318.85" font-family="Arial Bold" font-size="16.00" fill="#0f2f6b">Step 5:</text>
<text xml:space="preserve" text-anchor="middle" x="592.4" y="-300.1" font-family="Arial Bold" font-size="16.00" fill="#0f2f6b">Chunking</text>
<text xml:space="preserve" text-anchor="middle" x="592.4" y="-281.35" font-family="Arial Bold" font-size="16.00" fill="#0f2f6b">Text Segments</text>
</g>
<!-- fc77729c43344b5d84683d0873c0ba81&#45;&gt;89dc8aa5c0234f99a76c17f181167ab1 -->
<g id="edge4" class="edge">
<title>fc77729c43344b5d84683d0873c0ba81&#45;&gt;89dc8aa5c0234f99a76c17f181167ab1</title>
<path fill="none" stroke="#1976d2" stroke-width="2.1" d="M497.74,-375C497.74,-375 539.47,-375 539.47,-375"/>
<polygon fill="#1976d2" stroke="#1976d2" stroke-width="2.1" points="539.47,-378.68 549.97,-375 539.47,-371.33 539.47,-378.68"/>
<text xml:space="preserve" text-anchor="middle" x="525.3" y="-379.15" font-family="Sans-Serif" font-size="13.00" fill="#2d3436">4. Split Documents</text>
</g>
<!-- ab2ae89063c4477399fde5494bf9d956 -->
<g id="node6" class="node">
<title>ab2ae89063c4477399fde5494bf9d956</title>
<path fill="#e3f2fd" stroke="none" stroke-width="2.4" d="M754.2,-479.6C754.2,-479.6 699,-479.6 699,-479.6 693,-479.6 687,-473.6 687,-467.6 687,-467.6 687,-268.4 687,-268.4 687,-262.4 693,-256.4 699,-256.4 699,-256.4 754.2,-256.4 754.2,-256.4 760.2,-256.4 766.2,-262.4 766.2,-268.4 766.2,-268.4 766.2,-467.6 766.2,-467.6 766.2,-473.6 760.2,-479.6 754.2,-479.6"/>
<image xlink:href="C:\Users\ahmad\AppData\Local\Programs\Python\Python313\Lib\site-packages\resources/aws/ml\machine-learning.png" width="79.2px" height="79.2px" preserveAspectRatio="xMinYMin meet" x="687" y="-407.6"/>
<text xml:space="preserve" text-anchor="middle" x="726.6" y="-316.2" font-family="Arial Bold" font-size="16.00" fill="#0f2f6b">Step 6:</text>
<text xml:space="preserve" text-anchor="middle" x="726.6" y="-297.45" font-family="Arial Bold" font-size="16.00" fill="#0f2f6b">OpenAI API</text>
<text xml:space="preserve" text-anchor="middle" x="726.6" y="-278.7" font-family="Arial Bold" font-size="16.00" fill="#0f2f6b">text&#45;embedding&#45;3&#45;small</text>
<text xml:space="preserve" text-anchor="middle" x="726.6" y="-259.95" font-family="Arial Bold" font-size="16.00" fill="#0f2f6b">Generate Embeddings</text>
</g>
<!-- 89dc8aa5c0234f99a76c17f181167ab1&#45;&gt;ab2ae89063c4477399fde5494bf9d956 -->
<g id="edge5" class="edge">
<title>89dc8aa5c0234f99a76c17f181167ab1&#45;&gt;ab2ae89063c4477399fde5494bf9d956</title>
<path fill="none" stroke="#1976d2" stroke-width="2.1" d="M631.94,-375C631.94,-375 673.67,-375 673.67,-375"/>
<polygon fill="#1976d2" stroke="#1976d2" stroke-width="2.1" points="673.67,-378.68 684.17,-375 673.67,-371.33 673.67,-378.68"/>
<text xml:space="preserve" text-anchor="middle" x="659.5" y="-388.65" font-family="Sans-Serif" font-size="13.00" fill="#2d3436">5. Text Chunks</text>
<text xml:space="preserve" text-anchor="middle" x="659.5" y="-372.15" font-family="Sans-Serif" font-size="13.00" fill="#2d3436">(2000 chars each)</text>
</g>
<!-- 509d85f99ab547e5b3ca4b06e245ce3d -->
<g id="node7" class="node">
<title>509d85f99ab547e5b3ca4b06e245ce3d</title>
<path fill="#e3f2fd" stroke="none" stroke-width="2.4" d="M888.4,-475.6C888.4,-475.6 833.2,-475.6 833.2,-475.6 827.2,-475.6 821.2,-469.6 821.2,-463.6 821.2,-463.6 821.2,-264.4 821.2,-264.4 821.2,-258.4 827.2,-252.4 833.2,-252.4 833.2,-252.4 888.4,-252.4 888.4,-252.4 894.4,-252.4 900.4,-258.4 900.4,-264.4 900.4,-264.4 900.4,-463.6 900.4,-463.6 900.4,-469.6 894.4,-475.6 888.4,-475.6"/>
<image xlink:href="C:\Users\ahmad\AppData\Local\Programs\Python\Python313\Lib\site-packages\resources/aws/database\database.png" width="79.2px" height="79.2px" preserveAspectRatio="xMinYMin meet" x="821.2" y="-403.6"/>
<text xml:space="preserve" text-anchor="middle" x="860.8" y="-312.2" font-family="Arial Bold" font-size="16.00" fill="#0f2f6b">Step 7:</text>
<text xml:space="preserve" text-anchor="middle" x="860.8" y="-293.45" font-family="Arial Bold" font-size="16.00" fill="#0f2f6b">Supabase</text>
<text xml:space="preserve" text-anchor="middle" x="860.8" y="-274.7" font-family="Arial Bold" font-size="16.00" fill="#0f2f6b">Vector Store</text>
<text xml:space="preserve" text-anchor="middle" x="860.8" y="-255.95" font-family="Arial Bold" font-size="16.00" fill="#0f2f6b">Store Embeddings</text>
</g>
<!-- ab2ae89063c4477399fde5494bf9d956&#45;&gt;509d85f99ab547e5b3ca4b06e245ce3d -->
<g id="edge6" class="edge">
<title>ab2ae89063c4477399fde5494bf9d956&#45;&gt;509d85f99ab547e5b3ca4b06e245ce3d</title>
<path fill="none" stroke="#1976d2" stroke-width="2.1" d="M766.14,-366C766.14,-366 807.87,-366 807.87,-366"/>
<polygon fill="#1976d2" stroke="#1976d2" stroke-width="2.1" points="807.87,-369.68 818.37,-366 807.87,-362.33 807.87,-369.68"/>
<text xml:space="preserve" text-anchor="middle" x="793.7" y="-385.65" font-family="Sans-Serif" font-size="13.00" fill="#2d3436">6. Embeddings</text>
<text xml:space="preserve" text-anchor="middle" x="793.7" y="-369.15" font-family="Sans-Serif" font-size="13.00" fill="#2d3436">(1536&#45;dim vectors)</text>
</g>
<!-- 3692ba2611274d0d94dd8761f089e042 -->
<g id="node8" class="node">
<title>3692ba2611274d0d94dd8761f089e042</title>
<path fill="#e3f2fd" stroke="none" stroke-width="2.4" d="M1022.6,-501.6C1022.6,-501.6 967.4,-501.6 967.4,-501.6 961.4,-501.6 955.4,-495.6 955.4,-489.6 955.4,-489.6 955.4,-290.4 955.4,-290.4 955.4,-284.4 961.4,-278.4 967.4,-278.4 967.4,-278.4 1022.6,-278.4 1022.6,-278.4 1028.6,-278.4 1034.6,-284.4 1034.6,-290.4 1034.6,-290.4 1034.6,-489.6 1034.6,-489.6 1034.6,-495.6 1028.6,-501.6 1022.6,-501.6"/>
<image xlink:href="C:\Users\ahmad\AppData\Local\Programs\Python\Python313\Lib\site-packages\resources/aws/database\rds.png" width="79.2px" height="79.2px" preserveAspectRatio="xMinYMin meet" x="955.4" y="-429.6"/>
<text xml:space="preserve" text-anchor="middle" x="995" y="-338.2" font-family="Arial Bold" font-size="16.00" fill="#0f2f6b">Step 8:</text>
<text xml:space="preserve" text-anchor="middle" x="995" y="-319.45" font-family="Arial Bold" font-size="16.00" fill="#0f2f6b">MongoDB</text>
<text xml:space="preserve" text-anchor="middle" x="995" y="-300.7" font-family="Arial Bold" font-size="16.00" fill="#0f2f6b">Update Project</text>
<text xml:space="preserve" text-anchor="middle" x="995" y="-281.95" font-family="Arial Bold" font-size="16.00" fill="#0f2f6b">processed: true</text>
</g>
<!-- 509d85f99ab547e5b3ca4b06e245ce3d&#45;&gt;3692ba2611274d0d94dd8761f089e042 -->
<g id="edge7" class="edge">
<title>509d85f99ab547e5b3ca4b06e245ce3d&#45;&gt;3692ba2611274d0d94dd8761f089e042</title>
<path fill="none" stroke="#1976d2" stroke-width="2.1" d="M900.34,-377C900.34,-377 942.07,-377 942.07,-377"/>
<polygon fill="#1976d2" stroke="#1976d2" stroke-width="2.1" points="942.07,-380.68 952.57,-377 942.07,-373.33 942.07,-380.68"/>
<text xml:space="preserve" text-anchor="middle" x="927.9" y="-397.65" font-family="Sans-Serif" font-size="13.00" fill="#2d3436">7. Save Embeddings</text>
<text xml:space="preserve" text-anchor="middle" x="927.9" y="-381.15" font-family="Sans-Serif" font-size="13.00" fill="#2d3436">Update Project</text>
</g>
<!-- a834294d9a8146a9838c7e684805af9c -->
<g id="node9" class="node">
<title>a834294d9a8146a9838c7e684805af9c</title>
<path fill="#e3f2fd" stroke="none" stroke-width="2.4" d="M1156.8,-445.6C1156.8,-445.6 1101.6,-445.6 1101.6,-445.6 1095.6,-445.6 1089.6,-439.6 1089.6,-433.6 1089.6,-433.6 1089.6,-234.4 1089.6,-234.4 1089.6,-228.4 1095.6,-222.4 1101.6,-222.4 1101.6,-222.4 1156.8,-222.4 1156.8,-222.4 1162.8,-222.4 1168.8,-228.4 1168.8,-234.4 1168.8,-234.4 1168.8,-433.6 1168.8,-433.6 1168.8,-439.6 1162.8,-445.6 1156.8,-445.6"/>
<image xlink:href="C:\Users\ahmad\AppData\Local\Programs\Python\Python313\Lib\site-packages\resources/aws/migration\application-discovery-service.png" width="79.2px" height="79.2px" preserveAspectRatio="xMinYMin meet" x="1089.6" y="-373.6"/>
<text xml:space="preserve" text-anchor="middle" x="1129.2" y="-282.2" font-family="Arial Bold" font-size="16.00" fill="#0f2f6b">Step 9:</text>
<text xml:space="preserve" text-anchor="middle" x="1129.2" y="-263.45" font-family="Arial Bold" font-size="16.00" fill="#0f2f6b">RAG Service</text>
<text xml:space="preserve" text-anchor="middle" x="1129.2" y="-244.7" font-family="Arial Bold" font-size="16.00" fill="#0f2f6b">Similarity Search</text>
<text xml:space="preserve" text-anchor="middle" x="1129.2" y="-225.95" font-family="Arial Bold" font-size="16.00" fill="#0f2f6b">Extract Features</text>
</g>
<!-- 509d85f99ab547e5b3ca4b06e245ce3d&#45;&gt;a834294d9a8146a9838c7e684805af9c -->
<g id="edge9" class="edge">
<title>509d85f99ab547e5b3ca4b06e245ce3d&#45;&gt;a834294d9a8146a9838c7e684805af9c</title>
<path fill="none" stroke="#1976d2" stroke-width="2.1" stroke-dasharray="5,2" d="M900.12,-265.4C900.12,-265.4 1076.1,-265.4 1076.1,-265.4"/>
<polygon fill="#1976d2" stroke="#1976d2" stroke-width="2.1" points="1076.1,-269.08 1086.6,-265.4 1076.1,-261.73 1076.1,-269.08"/>
<text xml:space="preserve" text-anchor="middle" x="995" y="-254.65" font-family="Sans-Serif" font-size="13.00" fill="#2d3436">9. Similarity Search</text>
<text xml:space="preserve" text-anchor="middle" x="995" y="-238.15" font-family="Sans-Serif" font-size="13.00" fill="#2d3436">Retrieve Context</text>
</g>
<!-- 05bca74aac394176b89b293951464c93 -->
<g id="node13" class="node">
<title>05bca74aac394176b89b293951464c93</title>
<path fill="#e3f2fd" stroke="none" stroke-width="2.4" d="M1559.4,-299.6C1559.4,-299.6 1504.2,-299.6 1504.2,-299.6 1498.2,-299.6 1492.2,-293.6 1492.2,-287.6 1492.2,-287.6 1492.2,-88.4 1492.2,-88.4 1492.2,-82.4 1498.2,-76.4 1504.2,-76.4 1504.2,-76.4 1559.4,-76.4 1559.4,-76.4 1565.4,-76.4 1571.4,-82.4 1571.4,-88.4 1571.4,-88.4 1571.4,-287.6 1571.4,-287.6 1571.4,-293.6 1565.4,-299.6 1559.4,-299.6"/>
<image xlink:href="C:\Users\ahmad\AppData\Local\Programs\Python\Python313\Lib\site-packages\resources/aws/migration\application-discovery-service.png" width="79.2px" height="79.2px" preserveAspectRatio="xMinYMin meet" x="1492.2" y="-227.6"/>
<text xml:space="preserve" text-anchor="middle" x="1531.8" y="-136.2" font-family="Arial Bold" font-size="16.00" fill="#0f2f6b">Step 13:</text>
<text xml:space="preserve" text-anchor="middle" x="1531.8" y="-117.45" font-family="Arial Bold" font-size="16.00" fill="#0f2f6b">RAG Service</text>
<text xml:space="preserve" text-anchor="middle" x="1531.8" y="-98.7" font-family="Arial Bold" font-size="16.00" fill="#0f2f6b">Section Context</text>
<text xml:space="preserve" text-anchor="middle" x="1531.8" y="-79.95" font-family="Arial Bold" font-size="16.00" fill="#0f2f6b">Generate Test Cases</text>
</g>
<!-- 509d85f99ab547e5b3ca4b06e245ce3d&#45;&gt;05bca74aac394176b89b293951464c93 -->
<g id="edge14" class="edge">
<title>509d85f99ab547e5b3ca4b06e245ce3d&#45;&gt;05bca74aac394176b89b293951464c93</title>
<path fill="none" stroke="#1976d2" stroke-width="2.1" stroke-dasharray="5,2" d="M860.8,-252.66C860.8,-193.92 860.8,-133.9 860.8,-133.9 860.8,-133.9 1478.65,-133.9 1478.65,-133.9"/>
<polygon fill="#1976d2" stroke="#1976d2" stroke-width="2.1" points="1478.65,-137.58 1489.15,-133.9 1478.65,-130.23 1478.65,-137.58"/>
<text xml:space="preserve" text-anchor="middle" x="1196.3" y="-146.65" font-family="Sans-Serif" font-size="13.00" fill="#2d3436">14. Section Context</text>
<text xml:space="preserve" text-anchor="middle" x="1196.3" y="-130.15" font-family="Sans-Serif" font-size="13.00" fill="#2d3436">from Matched Sections</text>
</g>
<!-- 3692ba2611274d0d94dd8761f089e042&#45;&gt;a834294d9a8146a9838c7e684805af9c -->
<g id="edge8" class="edge">
<title>3692ba2611274d0d94dd8761f089e042&#45;&gt;a834294d9a8146a9838c7e684805af9c</title>
<path fill="none" stroke="#1976d2" stroke-width="2.1" d="M1034.54,-362C1034.54,-362 1076.27,-362 1076.27,-362"/>
<polygon fill="#1976d2" stroke="#1976d2" stroke-width="2.1" points="1076.27,-365.68 1086.77,-362 1076.27,-358.33 1076.27,-365.68"/>
<text xml:space="preserve" text-anchor="middle" x="1062.1" y="-382.65" font-family="Sans-Serif" font-size="13.00" fill="#2d3436">8. Request Features</text>
<text xml:space="preserve" text-anchor="middle" x="1062.1" y="-366.15" font-family="Sans-Serif" font-size="13.00" fill="#2d3436">from SRS</text>
</g>
<!-- 2f59c18549d643f4aa6b0ef50c50f0bc -->
<g id="node10" class="node">
<title>2f59c18549d643f4aa6b0ef50c50f0bc</title>
<path fill="#e3f2fd" stroke="none" stroke-width="2.4" d="M1291,-460C1291,-460 1235.8,-460 1235.8,-460 1229.8,-460 1223.8,-454 1223.8,-448 1223.8,-448 1223.8,-220 1223.8,-220 1223.8,-214 1229.8,-208 1235.8,-208 1235.8,-208 1291,-208 1291,-208 1297,-208 1303,-214 1303,-220 1303,-220 1303,-448 1303,-448 1303,-454 1297,-460 1291,-460"/>
<image xlink:href="C:\Users\ahmad\AppData\Local\Programs\Python\Python313\Lib\site-packages\resources/aws/ml\sagemaker.png" width="79.2px" height="79.2px" preserveAspectRatio="xMinYMin meet" x="1223.8" y="-373.6"/>
<text xml:space="preserve" text-anchor="middle" x="1263.4" y="-286.55" font-family="Arial Bold" font-size="16.00" fill="#0f2f6b">Step 10:</text>
<text xml:space="preserve" text-anchor="middle" x="1263.4" y="-267.8" font-family="Arial Bold" font-size="16.00" fill="#0f2f6b">OpenAI API</text>
<text xml:space="preserve" text-anchor="middle" x="1263.4" y="-249.05" font-family="Arial Bold" font-size="16.00" fill="#0f2f6b">GPT&#45;4o&#45;mini</text>
<text xml:space="preserve" text-anchor="middle" x="1263.4" y="-230.3" font-family="Arial Bold" font-size="16.00" fill="#0f2f6b">Generate Features</text>
<text xml:space="preserve" text-anchor="middle" x="1263.4" y="-211.55" font-family="Arial Bold" font-size="16.00" fill="#0f2f6b">JSON Response</text>
</g>
<!-- a834294d9a8146a9838c7e684805af9c&#45;&gt;2f59c18549d643f4aa6b0ef50c50f0bc -->
<g id="edge10" class="edge">
<title>a834294d9a8146a9838c7e684805af9c&#45;&gt;2f59c18549d643f4aa6b0ef50c50f0bc</title>
<path fill="none" stroke="#1976d2" stroke-width="2.1" d="M1168.74,-334C1168.74,-334 1210.47,-334 1210.47,-334"/>
<polygon fill="#1976d2" stroke="#1976d2" stroke-width="2.1" points="1210.47,-337.68 1220.97,-334 1210.47,-330.33 1210.47,-337.68"/>
<text xml:space="preserve" text-anchor="middle" x="1196.3" y="-354.65" font-family="Sans-Serif" font-size="13.00" fill="#2d3436">10. Context + Query</text>
<text xml:space="preserve" text-anchor="middle" x="1196.3" y="-338.15" font-family="Sans-Serif" font-size="13.00" fill="#2d3436">Augmented Prompt</text>
</g>
<!-- 07fe1b8a25844736b1de9bdaa982aece -->
<g id="node11" class="node">
<title>07fe1b8a25844736b1de9bdaa982aece</title>
<path fill="#e3f2fd" stroke="none" stroke-width="2.4" d="M1425.2,-414.6C1425.2,-414.6 1370,-414.6 1370,-414.6 1364,-414.6 1358,-408.6 1358,-402.6 1358,-402.6 1358,-203.4 1358,-203.4 1358,-197.4 1364,-191.4 1370,-191.4 1370,-191.4 1425.2,-191.4 1425.2,-191.4 1431.2,-191.4 1437.2,-197.4 1437.2,-203.4 1437.2,-203.4 1437.2,-402.6 1437.2,-402.6 1437.2,-408.6 1431.2,-414.6 1425.2,-414.6"/>
<image xlink:href="C:\Users\ahmad\AppData\Local\Programs\Python\Python313\Lib\site-packages\resources/aws/database\rds.png" width="79.2px" height="79.2px" preserveAspectRatio="xMinYMin meet" x="1358" y="-342.6"/>
<text xml:space="preserve" text-anchor="middle" x="1397.6" y="-251.2" font-family="Arial Bold" font-size="16.00" fill="#0f2f6b">Step 11:</text>
<text xml:space="preserve" text-anchor="middle" x="1397.6" y="-232.45" font-family="Arial Bold" font-size="16.00" fill="#0f2f6b">MongoDB</text>
<text xml:space="preserve" text-anchor="middle" x="1397.6" y="-213.7" font-family="Arial Bold" font-size="16.00" fill="#0f2f6b">Save Features</text>
<text xml:space="preserve" text-anchor="middle" x="1397.6" y="-194.95" font-family="Arial Bold" font-size="16.00" fill="#0f2f6b">with Metadata</text>
</g>
<!-- 2f59c18549d643f4aa6b0ef50c50f0bc&#45;&gt;07fe1b8a25844736b1de9bdaa982aece -->
<g id="edge11" class="edge">
<title>2f59c18549d643f4aa6b0ef50c50f0bc&#45;&gt;07fe1b8a25844736b1de9bdaa982aece</title>
<path fill="none" stroke="#1976d2" stroke-width="2.1" d="M1302.94,-311.3C1302.94,-311.3 1344.67,-311.3 1344.67,-311.3"/>
<polygon fill="#1976d2" stroke="#1976d2" stroke-width="2.1" points="1344.67,-314.98 1355.17,-311.3 1344.67,-307.63 1344.67,-314.98"/>
<text xml:space="preserve" text-anchor="middle" x="1330.5" y="-338.65" font-family="Sans-Serif" font-size="13.00" fill="#2d3436">11. Features JSON</text>
<text xml:space="preserve" text-anchor="middle" x="1330.5" y="-322.15" font-family="Sans-Serif" font-size="13.00" fill="#2d3436">Response</text>
</g>
<!-- fadae502fcdf4e8c9b413d5a96648100 -->
<g id="node12" class="node">
<title>fadae502fcdf4e8c9b413d5a96648100</title>
<path fill="#e3f2fd" stroke="none" stroke-width="2.4" d="M1425.2,-680.6C1425.2,-680.6 1370,-680.6 1370,-680.6 1364,-680.6 1358,-674.6 1358,-668.6 1358,-668.6 1358,-469.4 1358,-469.4 1358,-463.4 1364,-457.4 1370,-457.4 1370,-457.4 1425.2,-457.4 1425.2,-457.4 1431.2,-457.4 1437.2,-463.4 1437.2,-469.4 1437.2,-469.4 1437.2,-668.6 1437.2,-668.6 1437.2,-674.6 1431.2,-680.6 1425.2,-680.6"/>
<image xlink:href="C:\Users\ahmad\AppData\Local\Programs\Python\Python313\Lib\site-packages\resources/aws/database\database.png" width="79.2px" height="79.2px" preserveAspectRatio="xMinYMin meet" x="1358" y="-608.6"/>
<text xml:space="preserve" text-anchor="middle" x="1397.6" y="-517.2" font-family="Arial Bold" font-size="16.00" fill="#0f2f6b">Step 12:</text>
<text xml:space="preserve" text-anchor="middle" x="1397.6" y="-498.45" font-family="Arial Bold" font-size="16.00" fill="#0f2f6b">Supabase</text>
<text xml:space="preserve" text-anchor="middle" x="1397.6" y="-479.7" font-family="Arial Bold" font-size="16.00" fill="#0f2f6b">Add Features</text>
<text xml:space="preserve" text-anchor="middle" x="1397.6" y="-460.95" font-family="Arial Bold" font-size="16.00" fill="#0f2f6b">to Vector Store</text>
</g>
<!-- 2f59c18549d643f4aa6b0ef50c50f0bc&#45;&gt;fadae502fcdf4e8c9b413d5a96648100 -->
<g id="edge12" class="edge">
<title>2f59c18549d643f4aa6b0ef50c50f0bc&#45;&gt;fadae502fcdf4e8c9b413d5a96648100</title>
<path fill="none" stroke="#1976d2" stroke-width="2.1" d="M1263.8,-459.77C1263.8,-472.46 1263.8,-480.8 1263.8,-480.8 1263.8,-480.8 1344.5,-480.8 1344.5,-480.8"/>
<polygon fill="#1976d2" stroke="#1976d2" stroke-width="2.1" points="1344.5,-484.48 1355,-480.8 1344.5,-477.13 1344.5,-484.48"/>
<text xml:space="preserve" text-anchor="middle" x="1330.5" y="-495.65" font-family="Sans-Serif" font-size="13.00" fill="#2d3436">12. Add Features</text>
<text xml:space="preserve" text-anchor="middle" x="1330.5" y="-479.15" font-family="Sans-Serif" font-size="13.00" fill="#2d3436">to Vector Store</text>
</g>
<!-- 07fe1b8a25844736b1de9bdaa982aece&#45;&gt;05bca74aac394176b89b293951464c93 -->
<g id="edge13" class="edge">
<title>07fe1b8a25844736b1de9bdaa982aece&#45;&gt;05bca74aac394176b89b293951464c93</title>
<path fill="none" stroke="#1976d2" stroke-width="2.1" d="M1437.14,-245.5C1437.14,-245.5 1478.87,-245.5 1478.87,-245.5"/>
<polygon fill="#1976d2" stroke="#1976d2" stroke-width="2.1" points="1478.87,-249.18 1489.37,-245.5 1478.87,-241.83 1478.87,-249.18"/>
<text xml:space="preserve" text-anchor="middle" x="1464.7" y="-270.65" font-family="Sans-Serif" font-size="13.00" fill="#2d3436">13. Select Feature</text>
<text xml:space="preserve" text-anchor="middle" x="1464.7" y="-254.15" font-family="Sans-Serif" font-size="13.00" fill="#2d3436">for Test Cases</text>
</g>
<!-- e72109bf543d4eb69613b9b86723d77e -->
<g id="node14" class="node">
<title>e72109bf543d4eb69613b9b86723d77e</title>
<path fill="#e3f2fd" stroke="none" stroke-width="2.4" d="M1693.6,-314C1693.6,-314 1638.4,-314 1638.4,-314 1632.4,-314 1626.4,-308 1626.4,-302 1626.4,-302 1626.4,-74 1626.4,-74 1626.4,-68 1632.4,-62 1638.4,-62 1638.4,-62 1693.6,-62 1693.6,-62 1699.6,-62 1705.6,-68 1705.6,-74 1705.6,-74 1705.6,-302 1705.6,-302 1705.6,-308 1699.6,-314 1693.6,-314"/>
<image xlink:href="C:\Users\ahmad\AppData\Local\Programs\Python\Python313\Lib\site-packages\resources/aws/ml\sagemaker.png" width="79.2px" height="79.2px" preserveAspectRatio="xMinYMin meet" x="1626.4" y="-227.6"/>
<text xml:space="preserve" text-anchor="middle" x="1666" y="-140.55" font-family="Arial Bold" font-size="16.00" fill="#0f2f6b">Step 14:</text>
<text xml:space="preserve" text-anchor="middle" x="1666" y="-121.8" font-family="Arial Bold" font-size="16.00" fill="#0f2f6b">OpenAI API</text>
<text xml:space="preserve" text-anchor="middle" x="1666" y="-103.05" font-family="Arial Bold" font-size="16.00" fill="#0f2f6b">GPT&#45;4o&#45;mini</text>
<text xml:space="preserve" text-anchor="middle" x="1666" y="-84.3" font-family="Arial Bold" font-size="16.00" fill="#0f2f6b">JSON Mode</text>
<text xml:space="preserve" text-anchor="middle" x="1666" y="-65.55" font-family="Arial Bold" font-size="16.00" fill="#0f2f6b">Generate Test Cases</text>
</g>
<!-- 05bca74aac394176b89b293951464c93&#45;&gt;e72109bf543d4eb69613b9b86723d77e -->
<g id="edge15" class="edge">
<title>05bca74aac394176b89b293951464c93&#45;&gt;e72109bf543d4eb69613b9b86723d77e</title>
<path fill="none" stroke="#1976d2" stroke-width="2.1" d="M1571.34,-188C1571.34,-188 1613.07,-188 1613.07,-188"/>
<polygon fill="#1976d2" stroke="#1976d2" stroke-width="2.1" points="1613.07,-191.68 1623.57,-188 1613.07,-184.33 1613.07,-191.68"/>
<text xml:space="preserve" text-anchor="middle" x="1598.9" y="-208.65" font-family="Sans-Serif" font-size="13.00" fill="#2d3436">15. Context + Feature</text>
<text xml:space="preserve" text-anchor="middle" x="1598.9" y="-192.15" font-family="Sans-Serif" font-size="13.00" fill="#2d3436">Augmented Prompt</text>
</g>
<!-- 99a41608b2d34537852c94bc6f8eb8b8 -->
<g id="node15" class="node">
<title>99a41608b2d34537852c94bc6f8eb8b8</title>
<path fill="#e3f2fd" stroke="none" stroke-width="2.4" d="M1827.8,-268.6C1827.8,-268.6 1772.6,-268.6 1772.6,-268.6 1766.6,-268.6 1760.6,-262.6 1760.6,-256.6 1760.6,-256.6 1760.6,-57.4 1760.6,-57.4 1760.6,-51.4 1766.6,-45.4 1772.6,-45.4 1772.6,-45.4 1827.8,-45.4 1827.8,-45.4 1833.8,-45.4 1839.8,-51.4 1839.8,-57.4 1839.8,-57.4 1839.8,-256.6 1839.8,-256.6 1839.8,-262.6 1833.8,-268.6 1827.8,-268.6"/>
<image xlink:href="C:\Users\ahmad\AppData\Local\Programs\Python\Python313\Lib\site-packages\resources/aws/database\rds.png" width="79.2px" height="79.2px" preserveAspectRatio="xMinYMin meet" x="1760.6" y="-196.6"/>
<text xml:space="preserve" text-anchor="middle" x="1800.2" y="-105.2" font-family="Arial Bold" font-size="16.00" fill="#0f2f6b">Step 15:</text>
<text xml:space="preserve" text-anchor="middle" x="1800.2" y="-86.45" font-family="Arial Bold" font-size="16.00" fill="#0f2f6b">MongoDB</text>
<text xml:space="preserve" text-anchor="middle" x="1800.2" y="-67.7" font-family="Arial Bold" font-size="16.00" fill="#0f2f6b">Save Test Cases</text>
<text xml:space="preserve" text-anchor="middle" x="1800.2" y="-48.95" font-family="Arial Bold" font-size="16.00" fill="#0f2f6b">with Gherkin</text>
</g>
<!-- e72109bf543d4eb69613b9b86723d77e&#45;&gt;99a41608b2d34537852c94bc6f8eb8b8 -->
<g id="edge16" class="edge">
<title>e72109bf543d4eb69613b9b86723d77e&#45;&gt;99a41608b2d34537852c94bc6f8eb8b8</title>
<path fill="none" stroke="#1976d2" stroke-width="2.1" d="M1705.54,-165.3C1705.54,-165.3 1747.27,-165.3 1747.27,-165.3"/>
<polygon fill="#1976d2" stroke="#1976d2" stroke-width="2.1" points="1747.27,-168.98 1757.77,-165.3 1747.27,-161.63 1747.27,-168.98"/>
<text xml:space="preserve" text-anchor="middle" x="1733.1" y="-192.65" font-family="Sans-Serif" font-size="13.00" fill="#2d3436">16. Test Cases JSON</text>
<text xml:space="preserve" text-anchor="middle" x="1733.1" y="-176.15" font-family="Sans-Serif" font-size="13.00" fill="#2d3436">with Gherkin</text>
</g>
<!-- 57a5be4656794b49abaa735466b407e1 -->
<g id="node16" class="node">
<title>57a5be4656794b49abaa735466b407e1</title>
<path fill="#e3f2fd" stroke="none" stroke-width="2.4" d="M1827.8,-534.6C1827.8,-534.6 1772.6,-534.6 1772.6,-534.6 1766.6,-534.6 1760.6,-528.6 1760.6,-522.6 1760.6,-522.6 1760.6,-323.4 1760.6,-323.4 1760.6,-317.4 1766.6,-311.4 1772.6,-311.4 1772.6,-311.4 1827.8,-311.4 1827.8,-311.4 1833.8,-311.4 1839.8,-317.4 1839.8,-323.4 1839.8,-323.4 1839.8,-522.6 1839.8,-522.6 1839.8,-528.6 1833.8,-534.6 1827.8,-534.6"/>
<image xlink:href="C:\Users\ahmad\AppData\Local\Programs\Python\Python313\Lib\site-packages\resources/aws/database\database.png" width="79.2px" height="79.2px" preserveAspectRatio="xMinYMin meet" x="1760.6" y="-462.6"/>
<text xml:space="preserve" text-anchor="middle" x="1800.2" y="-371.2" font-family="Arial Bold" font-size="16.00" fill="#0f2f6b">Step 16:</text>
<text xml:space="preserve" text-anchor="middle" x="1800.2" y="-352.45" font-family="Arial Bold" font-size="16.00" fill="#0f2f6b">Supabase</text>
<text xml:space="preserve" text-anchor="middle" x="1800.2" y="-333.7" font-family="Arial Bold" font-size="16.00" fill="#0f2f6b">Add Test Cases</text>
<text xml:space="preserve" text-anchor="middle" x="1800.2" y="-314.95" font-family="Arial Bold" font-size="16.00" fill="#0f2f6b">to Vector Store</text>
</g>
<!-- e72109bf543d4eb69613b9b86723d77e&#45;&gt;57a5be4656794b49abaa735466b407e1 -->
<g id="edge17" class="edge">
<title>e72109bf543d4eb69613b9b86723d77e&#45;&gt;57a5be4656794b49abaa735466b407e1</title>
<path fill="none" stroke="#1976d2" stroke-width="2.1" d="M1705.42,-290C1744.89,-290 1799.8,-290 1799.8,-290 1799.8,-290 1799.8,-297.99 1799.8,-297.99"/>
<polygon fill="#1976d2" stroke="#1976d2" stroke-width="2.1" points="1796.13,-297.99 1799.8,-308.49 1803.48,-297.99 1796.13,-297.99"/>
<text xml:space="preserve" text-anchor="middle" x="1733.1" y="-349.65" font-family="Sans-Serif" font-size="13.00" fill="#2d3436">17. Add Test Cases</text>
<text xml:space="preserve" text-anchor="middle" x="1733.1" y="-333.15" font-family="Sans-Serif" font-size="13.00" fill="#2d3436">to Vector Store</text>
</g>
</g>
</svg>
