<?xml version="1.0" encoding="UTF-8" standalone="no"?>
<!DOCTYPE svg PUBLIC "-//W3C//DTD SVG 1.1//EN"
 "http://www.w3.org/Graphics/SVG/1.1/DTD/svg11.dtd">
<!-- Generated by graphviz version 14.1.0 (20251206.1807)
 -->
<!-- Title: RAG Query Flow Pages: 1 -->
<svg width="2485pt" height="2266pt"
 viewBox="0.00 0.00 2485.00 2266.00" xmlns="http://www.w3.org/2000/svg" xmlns:xlink="http://www.w3.org/1999/xlink">
<g id="graph0" class="graph" transform="scale(2.77778 2.77778) rotate(0) translate(144 671.65)">
<title>RAG Query Flow</title>
<polygon fill="white" stroke="none" points="-144,144 -144,-671.65 750.6,-671.65 750.6,144 -144,144"/>
<text xml:space="preserve" text-anchor="middle" x="303.3" y="-8.25" font-family="Arial Bold" font-size="20.00" fill="#2d3436">RAG Query Flow</text>
<!-- b8e8509ddbb4462e8dd39838f04e37a2 -->
<g id="node1" class="node">
<title>b8e8509ddbb4462e8dd39838f04e37a2</title>
<path fill="#e3f2fd" stroke="none" stroke-width="2.7" d="M74.4,-521.85C74.4,-521.85 12,-521.85 12,-521.85 6,-521.85 0,-515.85 0,-509.85 0,-509.85 0,-397.05 0,-397.05 0,-391.05 6,-385.05 12,-385.05 12,-385.05 74.4,-385.05 74.4,-385.05 80.4,-385.05 86.4,-391.05 86.4,-397.05 86.4,-397.05 86.4,-509.85 86.4,-509.85 86.4,-515.85 80.4,-521.85 74.4,-521.85"/>
<image xlink:href="C:\Users\ahmad\AppData\Local\Programs\Python\Python313\Lib\site-packages\resources/aws/general\user.png" width="86.4px" height="86.4px" preserveAspectRatio="xMinYMin meet" x="5.68434e-14" y="-496.65"/>
<text xml:space="preserve" text-anchor="middle" x="43.2" y="-388.95" font-family="Arial Bold" font-size="18.00" fill="#0f2f6b">User</text>
</g>
<!-- e901a0026ff04e56984aa2d3e85dce17 -->
<g id="node3" class="node">
<title>e901a0026ff04e56984aa2d3e85dce17</title>
<path fill="#e3f2fd" stroke="none" stroke-width="2.7" d="M247.8,-413.65C247.8,-413.65 185.4,-413.65 185.4,-413.65 179.4,-413.65 173.4,-407.65 173.4,-401.65 173.4,-401.65 173.4,-231.25 173.4,-231.25 173.4,-225.25 179.4,-219.25 185.4,-219.25 185.4,-219.25 247.8,-219.25 247.8,-219.25 253.8,-219.25 259.8,-225.25 259.8,-231.25 259.8,-231.25 259.8,-401.65 259.8,-401.65 259.8,-407.65 253.8,-413.65 247.8,-413.65"/>
<image xlink:href="C:\Users\ahmad\AppData\Local\Programs\Python\Python313\Lib\site-packages\resources/aws/migration\application-discovery-service.png" width="86.4px" height="86.4px" preserveAspectRatio="xMinYMin meet" x="173.4" y="-359.65"/>
<text xml:space="preserve" text-anchor="middle" x="216.6" y="-265.15" font-family="Arial Bold" font-size="18.00" fill="#0f2f6b">Retrieval</text>
<text xml:space="preserve" text-anchor="middle" x="216.6" y="-244.15" font-family="Arial Bold" font-size="18.00" fill="#0f2f6b">Model</text>
<text xml:space="preserve" text-anchor="middle" x="216.6" y="-223.15" font-family="Arial Bold" font-size="18.00" fill="#0f2f6b">Similarity Search</text>
</g>
<!-- b8e8509ddbb4462e8dd39838f04e37a2&#45;&gt;e901a0026ff04e56984aa2d3e85dce17 -->
<g id="edge1" class="edge">
<title>b8e8509ddbb4462e8dd39838f04e37a2&#45;&gt;e901a0026ff04e56984aa2d3e85dce17</title>
<path fill="none" stroke="#1976d2" stroke-width="2.3" d="M86.06,-399.35C86.06,-399.35 161.15,-399.35 161.15,-399.35"/>
<polygon fill="#1976d2" stroke="#1976d2" stroke-width="2.3" points="161.15,-402.5 170.15,-399.35 161.15,-396.2 161.15,-402.5"/>
<text xml:space="preserve" text-anchor="middle" x="129.9" y="-457.6" font-family="Sans-Serif" font-size="13.00" fill="#2d3436">1. Query</text>
</g>
<!-- c3c1c9dfdc29452c87f49c9608c27ae3 -->
<g id="node2" class="node">
<title>c3c1c9dfdc29452c87f49c9608c27ae3</title>
<path fill="#e3f2fd" stroke="none" stroke-width="2.7" d="M74.4,-276.65C74.4,-276.65 12,-276.65 12,-276.65 6,-276.65 0,-270.65 0,-264.65 0,-264.65 0,-94.25 0,-94.25 0,-88.25 6,-82.25 12,-82.25 12,-82.25 74.4,-82.25 74.4,-82.25 80.4,-82.25 86.4,-88.25 86.4,-94.25 86.4,-94.25 86.4,-264.65 86.4,-264.65 86.4,-270.65 80.4,-276.65 74.4,-276.65"/>
<image xlink:href="C:\Users\ahmad\AppData\Local\Programs\Python\Python313\Lib\site-packages\resources/aws/ml\machine-learning.png" width="86.4px" height="86.4px" preserveAspectRatio="xMinYMin meet" x="5.68434e-14" y="-222.65"/>
<text xml:space="preserve" text-anchor="middle" x="43.2" y="-128.15" font-family="Arial Bold" font-size="18.00" fill="#0f2f6b">Embedding</text>
<text xml:space="preserve" text-anchor="middle" x="43.2" y="-107.15" font-family="Arial Bold" font-size="18.00" fill="#0f2f6b">Model</text>
<text xml:space="preserve" text-anchor="middle" x="43.2" y="-86.15" font-family="Arial Bold" font-size="18.00" fill="#0f2f6b">text&#45;embedding&#45;3&#45;small</text>
</g>
<!-- c3c1c9dfdc29452c87f49c9608c27ae3&#45;&gt;e901a0026ff04e56984aa2d3e85dce17 -->
<g id="edge2" class="edge">
<title>c3c1c9dfdc29452c87f49c9608c27ae3&#45;&gt;e901a0026ff04e56984aa2d3e85dce17</title>
<path fill="none" stroke="#1976d2" stroke-width="2.3" d="M86.06,-247.95C86.06,-247.95 161.15,-247.95 161.15,-247.95"/>
<polygon fill="#1976d2" stroke="#1976d2" stroke-width="2.3" points="161.15,-251.1 170.15,-247.95 161.15,-244.8 161.15,-251.1"/>
<text xml:space="preserve" text-anchor="middle" x="129.9" y="-183.6" font-family="Sans-Serif" font-size="13.00" fill="#2d3436">2. Encode</text>
</g>
<!-- 33eb72f86f674c00b26199a77e25b39d -->
<g id="node4" class="node">
<title>33eb72f86f674c00b26199a77e25b39d</title>
<path fill="#e3f2fd" stroke="none" stroke-width="2.7" d="M421.2,-527.65C421.2,-527.65 358.8,-527.65 358.8,-527.65 352.8,-527.65 346.8,-521.65 346.8,-515.65 346.8,-515.65 346.8,-345.25 346.8,-345.25 346.8,-339.25 352.8,-333.25 358.8,-333.25 358.8,-333.25 421.2,-333.25 421.2,-333.25 427.2,-333.25 433.2,-339.25 433.2,-345.25 433.2,-345.25 433.2,-515.65 433.2,-515.65 433.2,-521.65 427.2,-527.65 421.2,-527.65"/>
<image xlink:href="C:\Users\ahmad\AppData\Local\Programs\Python\Python313\Lib\site-packages\resources/aws/database\database.png" width="86.4px" height="86.4px" preserveAspectRatio="xMinYMin meet" x="346.8" y="-473.65"/>
<text xml:space="preserve" text-anchor="middle" x="390" y="-379.15" font-family="Arial Bold" font-size="18.00" fill="#0f2f6b">Knowledge</text>
<text xml:space="preserve" text-anchor="middle" x="390" y="-358.15" font-family="Arial Bold" font-size="18.00" fill="#0f2f6b">Base</text>
<text xml:space="preserve" text-anchor="middle" x="390" y="-337.15" font-family="Arial Bold" font-size="18.00" fill="#0f2f6b">Vector Store</text>
</g>
<!-- e901a0026ff04e56984aa2d3e85dce17&#45;&gt;33eb72f86f674c00b26199a77e25b39d -->
<g id="edge3" class="edge">
<title>e901a0026ff04e56984aa2d3e85dce17&#45;&gt;33eb72f86f674c00b26199a77e25b39d</title>
<path fill="none" stroke="#1976d2" stroke-width="2.3" d="M259.46,-360.05C259.46,-360.05 334.55,-360.05 334.55,-360.05"/>
<polygon fill="#1976d2" stroke="#1976d2" stroke-width="2.3" points="334.55,-363.2 343.55,-360.05 334.55,-356.9 334.55,-363.2"/>
<text xml:space="preserve" text-anchor="middle" x="303.3" y="-434.6" font-family="Sans-Serif" font-size="13.00" fill="#2d3436">3. Search KB</text>
</g>
<!-- 60c94685bf6d4668abb4b3a1edbc15a3 -->
<g id="node5" class="node">
<title>60c94685bf6d4668abb4b3a1edbc15a3</title>
<path fill="#e3f2fd" stroke="none" stroke-width="2.7" d="M421.2,-225.65C421.2,-225.65 358.8,-225.65 358.8,-225.65 352.8,-225.65 346.8,-219.65 346.8,-213.65 346.8,-213.65 346.8,-43.25 346.8,-43.25 346.8,-37.25 352.8,-31.25 358.8,-31.25 358.8,-31.25 421.2,-31.25 421.2,-31.25 427.2,-31.25 433.2,-37.25 433.2,-43.25 433.2,-43.25 433.2,-213.65 433.2,-213.65 433.2,-219.65 427.2,-225.65 421.2,-225.65"/>
<image xlink:href="C:\Users\ahmad\AppData\Local\Programs\Python\Python313\Lib\site-packages\resources/aws/ml\sagemaker.png" width="86.4px" height="86.4px" preserveAspectRatio="xMinYMin meet" x="346.8" y="-171.65"/>
<text xml:space="preserve" text-anchor="middle" x="390" y="-77.15" font-family="Arial Bold" font-size="18.00" fill="#0f2f6b">Language</text>
<text xml:space="preserve" text-anchor="middle" x="390" y="-56.15" font-family="Arial Bold" font-size="18.00" fill="#0f2f6b">Model</text>
<text xml:space="preserve" text-anchor="middle" x="390" y="-35.15" font-family="Arial Bold" font-size="18.00" fill="#0f2f6b">GPT&#45;4o&#45;mini</text>
</g>
<!-- e901a0026ff04e56984aa2d3e85dce17&#45;&gt;60c94685bf6d4668abb4b3a1edbc15a3 -->
<g id="edge5" class="edge">
<title>e901a0026ff04e56984aa2d3e85dce17&#45;&gt;60c94685bf6d4668abb4b3a1edbc15a3</title>
<path fill="none" stroke="#1976d2" stroke-width="2.3" d="M259.36,-279.45C310.59,-279.45 389.6,-279.45 389.6,-279.45 389.6,-279.45 389.6,-237.84 389.6,-237.84"/>
<polygon fill="#1976d2" stroke="#1976d2" stroke-width="2.3" points="392.75,-237.84 389.6,-228.84 386.45,-237.84 392.75,-237.84"/>
<text xml:space="preserve" text-anchor="middle" x="303.3" y="-169.6" font-family="Sans-Serif" font-size="13.00" fill="#2d3436">5. Rank / Compose</text>
</g>
<!-- 33eb72f86f674c00b26199a77e25b39d&#45;&gt;e901a0026ff04e56984aa2d3e85dce17 -->
<g id="edge4" class="edge">
<title>33eb72f86f674c00b26199a77e25b39d&#45;&gt;e901a0026ff04e56984aa2d3e85dce17</title>
<path fill="none" stroke="#1976d2" stroke-width="2.3" stroke-dasharray="5,2" d="M347.14,-386.85C347.14,-386.85 272.05,-386.85 272.05,-386.85"/>
<polygon fill="#1976d2" stroke="#1976d2" stroke-width="2.3" points="272.05,-383.7 263.05,-386.85 272.05,-390 272.05,-383.7"/>
<text xml:space="preserve" text-anchor="middle" x="303.3" y="-320.6" font-family="Sans-Serif" font-size="13.00" fill="#2d3436">4. Retrieved Context</text>
</g>
<!-- c9040d51266b462ca76b97685defc048 -->
<g id="node6" class="node">
<title>c9040d51266b462ca76b97685defc048</title>
<path fill="#e3f2fd" stroke="none" stroke-width="2.7" d="M594.6,-196.85C594.6,-196.85 532.2,-196.85 532.2,-196.85 526.2,-196.85 520.2,-190.85 520.2,-184.85 520.2,-184.85 520.2,-72.05 520.2,-72.05 520.2,-66.05 526.2,-60.05 532.2,-60.05 532.2,-60.05 594.6,-60.05 594.6,-60.05 600.6,-60.05 606.6,-66.05 606.6,-72.05 606.6,-72.05 606.6,-184.85 606.6,-184.85 606.6,-190.85 600.6,-196.85 594.6,-196.85"/>
<image xlink:href="C:\Users\ahmad\AppData\Local\Programs\Python\Python313\Lib\site-packages\resources/aws/general\user.png" width="86.4px" height="86.4px" preserveAspectRatio="xMinYMin meet" x="520.2" y="-171.65"/>
<text xml:space="preserve" text-anchor="middle" x="563.4" y="-63.95" font-family="Arial Bold" font-size="18.00" fill="#0f2f6b">Response</text>
</g>
<!-- 60c94685bf6d4668abb4b3a1edbc15a3&#45;&gt;c9040d51266b462ca76b97685defc048 -->
<g id="edge6" class="edge">
<title>60c94685bf6d4668abb4b3a1edbc15a3&#45;&gt;c9040d51266b462ca76b97685defc048</title>
<path fill="none" stroke="#1976d2" stroke-width="2.3" d="M432.86,-128.45C432.86,-128.45 507.95,-128.45 507.95,-128.45"/>
<polygon fill="#1976d2" stroke="#1976d2" stroke-width="2.3" points="507.95,-131.6 516.95,-128.45 507.95,-125.3 507.95,-131.6"/>
<text xml:space="preserve" text-anchor="middle" x="476.7" y="-132.6" font-family="Sans-Serif" font-size="13.00" fill="#2d3436">6. Response</text>
</g>
</g>
</svg>
